<svg width="24" height="25" viewBox="0 0 24 25" fill="none" xmlns="http://www.w3.org/2000/svg">
<path d="M22 19.5V22.5H2V19.5C2 18.95 2.45 18.5 3 18.5H21C21.55 18.5 22 18.95 22 19.5Z" fill="#757C98"/>
<path d="M7 11.5H5V18.5H7V11.5Z" fill="#757C98"/>
<path d="M11 11.5H9V18.5H11V11.5Z" fill="#757C98"/>
<path d="M15 11.5H13V18.5H15V11.5Z" fill="#757C98"/>
<path d="M19 11.5H17V18.5H19V11.5Z" fill="#757C98"/>
<path d="M23 23.25H1C0.59 23.25 0.25 22.91 0.25 22.5C0.25 22.09 0.59 21.75 1 21.75H23C23.41 21.75 23.75 22.09 23.75 22.5C23.75 22.91 23.41 23.25 23 23.25Z" fill="#757C98"/>
<path d="M21.37 6.24984L12.37 2.64984C12.17 2.56984 11.83 2.56984 11.63 2.64984L2.63 6.24984C2.28 6.38984 2 6.79984 2 7.17984V10.4998C2 11.0498 2.45 11.4998 3 11.4998H21C21.55 11.4998 22 11.0498 22 10.4998V7.17984C22 6.79984 21.72 6.38984 21.37 6.24984ZM12 8.99984C11.17 8.99984 10.5 8.32984 10.5 7.49984C10.5 6.66984 11.17 5.99984 12 5.99984C12.83 5.99984 13.5 6.66984 13.5 7.49984C13.5 8.32984 12.83 8.99984 12 8.99984Z" fill="#757C98"/>
</svg>
