<svg width="56" height="56" viewBox="0 0 56 56" fill="none" xmlns="http://www.w3.org/2000/svg">
<rect width="56" height="56" rx="8" fill="#FED049" fill-opacity="0.09"/>
<path d="M37.986 22.1132L37.8343 21.7207L37.4216 21.8032C37.3865 21.8102 37.3565 21.8183 37.3353 21.8244L37.3083 21.8322L37.3038 21.8335H33.9063H32.3925L33.6085 22.7351C36.2107 24.6646 37.833 27.8735 37.833 31.3335C37.833 31.5393 37.821 31.7331 37.7964 31.9417L37.7307 32.5002H38.293H38.6663C39.4969 32.5002 40.1663 33.1696 40.1663 34.0002V36.6668C40.1663 37.4974 39.4969 38.1668 38.6663 38.1668H35.9997C35.7865 38.1668 35.5926 38.1194 35.4004 38.0283L35.3909 38.0238L35.3812 38.0197C34.8708 37.8038 34.4997 37.2771 34.4997 36.6668V34.0002C34.4997 33.1696 35.1691 32.5002 35.9997 32.5002H36.3197H36.8197V32.0002C36.8197 31.9629 36.8166 31.9311 36.8137 31.9081C36.812 31.894 36.8099 31.8806 36.8083 31.8707C36.8204 31.7023 36.833 31.5245 36.833 31.3335C36.833 27.8867 35.0546 24.6908 32.2398 23.0358L31.54 22.6244L31.4874 23.4344C31.4374 24.2036 30.7839 24.8335 29.9997 24.8335H25.9997C25.2142 24.8335 24.5653 24.2036 24.5257 23.4409L24.4829 22.6184L23.7729 23.0358C20.9584 24.6906 19.1797 27.8729 19.1797 31.3335L19.1797 31.3458C19.1797 31.5065 19.1796 31.6869 19.2025 31.8826C19.2013 31.8903 19.2001 31.8991 19.199 31.9081C19.1961 31.9311 19.193 31.9629 19.193 32.0002V32.5002H19.693H19.9997C20.8302 32.5002 21.4997 33.1696 21.4997 34.0002V36.6668C21.4997 37.2771 21.1285 37.8038 20.6182 38.0197L20.6085 38.0238L20.599 38.0283C20.4067 38.1194 20.2128 38.1668 19.9997 38.1668H17.333C16.5025 38.1668 15.833 37.4974 15.833 36.6668V34.0002C15.833 33.1696 16.5025 32.5002 17.333 32.5002H17.7063H18.2686L18.2029 31.9417C18.1784 31.7331 18.1663 31.5393 18.1663 31.3335C18.1663 27.8735 19.7886 24.6646 22.3908 22.7351L23.6068 21.8335H22.093H18.6956L18.6911 21.8322L18.6641 21.8244C18.6429 21.8183 18.6128 21.8102 18.5777 21.8032L18.1651 21.7207L18.0133 22.1132C17.698 22.9288 16.9177 23.5002 15.9997 23.5002C14.8092 23.5002 13.833 22.524 13.833 21.3335C13.833 20.143 14.8092 19.1668 15.9997 19.1668C16.9177 19.1668 17.698 19.7382 18.0133 20.5538L18.1651 20.9463L18.5777 20.8638C18.6128 20.8568 18.6429 20.8487 18.6641 20.8426L18.6911 20.8348L18.6956 20.8335H23.9997H24.4997V20.3335V19.3335C24.4997 18.5163 25.1825 17.8335 25.9997 17.8335H29.9997C30.8169 17.8335 31.4997 18.5163 31.4997 19.3335V20.3335V20.8335H31.9997H37.3038L37.3083 20.8348L37.3353 20.8426C37.3565 20.8487 37.3865 20.8568 37.4216 20.8638L37.8343 20.9463L37.986 20.5538C38.3014 19.7382 39.0816 19.1668 39.9997 19.1668C41.1902 19.1668 42.1663 20.143 42.1663 21.3335C42.1663 22.524 41.1902 23.5002 39.9997 23.5002C39.0816 23.5002 38.3014 22.9288 37.986 22.1132Z" fill="#FED049" stroke="#FED049"/>
</svg>
