<svg width="24" height="25" viewBox="0 0 24 25" fill="none" xmlns="http://www.w3.org/2000/svg">
<path d="M16.02 6.07002V6.57002H16.52H16.76C18.7613 6.57002 20.0079 7.02885 20.7191 7.81529C21.5053 8.68516 21.5499 9.86635 21.4727 10.8566C21.4674 10.8967 21.4644 10.9313 21.4624 10.9549L21.4619 10.9605C21.4594 10.9895 21.4583 10.9993 21.4568 11.0078L21.4544 11.0224L21.4528 11.0371L21.4031 11.5048L21.4028 11.5071L21.3874 11.6459C21.0214 11.9098 20.6276 12.1736 20.254 12.3847L20.2539 12.3846L20.2428 12.3913C20.2242 12.4024 20.2076 12.4129 20.1944 12.4214L20.1618 12.4423C20.1453 12.4527 20.1358 12.4581 20.1264 12.4628L20.1119 12.4701L20.0978 12.4783C18.3706 13.4874 16.459 14.1763 14.4802 14.4964L14.0898 14.5596L14.0613 14.954C14.03 15.3883 13.9227 15.7614 13.6548 16.0319C13.3917 16.2975 12.8873 16.55 11.87 16.55C10.8546 16.55 10.3547 16.2959 10.0933 16.0312C9.82548 15.7599 9.71858 15.3886 9.67776 14.9624L9.64099 14.5783L9.26014 14.5165C7.40385 14.2152 5.57857 13.6031 3.9209 12.6919L3.92092 12.6918L3.91533 12.6888C3.76204 12.6071 3.63035 12.5365 3.51042 12.4594L3.4969 12.4507L3.48286 12.4429C3.26183 12.3201 2.87811 12.0733 2.63509 11.9143L2.55779 11.1026L2.55667 11.0909L2.55501 11.0793L2.54656 11.0201C2.44847 10.0204 2.45066 8.7483 3.28126 7.82498C3.99269 7.03852 5.22952 6.58002 7.24004 6.58002H7.48004H7.98004V6.08002V6.03002C7.98004 5.16039 7.99427 4.3797 8.37065 3.79411C8.71067 3.26508 9.44542 2.77002 11.24 2.77002H12.76C14.5556 2.77002 15.29 3.26312 15.6296 3.79069C16.0057 4.3748 16.02 5.15499 16.02 6.03002V6.07002ZM10.63 12.58H10.13V13.08V14.34L10.13 14.3635C10.13 14.5988 10.13 14.8274 10.1528 15.0186C10.1766 15.2188 10.2329 15.458 10.4082 15.6575C10.5874 15.8615 10.8256 15.9507 11.0532 15.9951C11.2767 16.0388 11.5484 16.05 11.86 16.05C12.1692 16.05 12.4395 16.0407 12.6609 16.0003C12.8856 15.9593 13.1271 15.8749 13.3095 15.6702C13.488 15.47 13.5438 15.2275 13.5674 15.026C13.5901 14.8325 13.5901 14.5987 13.59 14.354L13.59 14.33V13.08V12.58H13.09H10.63ZM15.09 6.58002H15.59V6.08002V6.03002V6.00666C15.5901 5.60304 15.5901 5.22042 15.5499 4.89229C15.5085 4.55365 15.4184 4.21107 15.1922 3.92265C14.9599 3.62663 14.6325 3.44789 14.2346 3.34295C13.8452 3.24027 13.3581 3.20002 12.76 3.20002H11.24C10.6424 3.20002 10.1556 3.2396 9.76659 3.34126C9.36912 3.44513 9.04116 3.62257 8.8084 3.91826C8.58161 4.20638 8.49153 4.54914 8.45013 4.88816C8.41001 5.21672 8.41002 5.60054 8.41004 6.00653L8.41004 6.03002V6.07002V6.08002V6.58002H8.91004H15.09Z" fill="#757C98" stroke="#757C98"/>
<path d="M21.0882 14.6859C21.091 14.6845 21.0921 14.6844 21.0917 14.6845L21.0914 14.6845L21.0913 14.6845C21.0912 14.6845 21.0912 14.6845 21.0912 14.6845C21.0916 14.6846 21.0943 14.685 21.0978 14.6875C21.0993 14.6885 21.1003 14.6894 21.1009 14.6901C21.1009 14.6904 21.1009 14.6908 21.1008 14.6912L20.7422 18.6414C20.6411 19.6011 20.4015 20.4655 19.7475 21.1018C19.0957 21.7358 17.9407 22.2302 15.8098 22.2302H8.18984C6.05899 22.2302 4.90379 21.7359 4.25194 21.1028C3.59794 20.4676 3.35853 19.6056 3.25746 18.6513L2.91708 14.9071C2.91704 14.9067 2.91702 14.9063 2.917 14.906C2.91758 14.9054 2.91848 14.9045 2.91983 14.9036C2.92255 14.9017 2.92472 14.901 2.92548 14.9009C2.92598 14.901 2.92699 14.9013 2.92858 14.902C4.06031 15.4141 6.20244 16.3477 7.54973 16.7006C7.55917 16.703 7.57859 16.7131 7.59262 16.7432C8.30869 18.2746 9.84748 19.0202 11.8698 19.0202C13.88 19.0202 15.4309 18.2434 16.1468 16.7135C16.1609 16.6835 16.1805 16.673 16.1907 16.6703C17.6237 16.2933 19.9054 15.2487 21.0882 14.6859ZM2.92511 14.9008C2.9251 14.9008 2.92513 14.9008 2.92518 14.9008L2.92517 14.9008C2.92513 14.9008 2.92511 14.9008 2.92511 14.9008Z" fill="#757C98" stroke="#757C98"/>
</svg>
