<svg width="24" height="25" viewBox="0 0 24 25" fill="none" xmlns="http://www.w3.org/2000/svg">
<path d="M16.0191 6.07002V6.57002H16.5191H16.7591C18.7603 6.57002 20.0069 7.02885 20.7181 7.81529C21.5044 8.68516 21.5489 9.86635 21.4717 10.8566C21.4664 10.8967 21.4635 10.9313 21.4614 10.9549L21.4609 10.9605C21.4584 10.9895 21.4573 10.9993 21.4559 11.0078L21.4534 11.0224L21.4519 11.0371L21.4021 11.5048L21.4019 11.5071L21.3864 11.6459C21.0204 11.9098 20.6266 12.1736 20.253 12.3847L20.253 12.3846L20.2418 12.3913C20.2232 12.4024 20.2066 12.4129 20.1934 12.4214L20.1608 12.4423C20.1443 12.4527 20.1348 12.4581 20.1255 12.4628L20.1109 12.4701L20.0968 12.4783C18.3697 13.4874 16.4581 14.1763 14.4792 14.4964L14.0888 14.5596L14.0604 14.954C14.029 15.3883 13.9217 15.7614 13.6538 16.0319C13.3907 16.2975 12.8863 16.55 11.8691 16.55C10.8536 16.55 10.3537 16.2959 10.0924 16.0312C9.82451 15.7599 9.7176 15.3886 9.67678 14.9624L9.64001 14.5783L9.25916 14.5165C7.40287 14.2152 5.57759 13.6031 3.91992 12.6919L3.91994 12.6918L3.91435 12.6888C3.76106 12.6071 3.62937 12.5365 3.50944 12.4594L3.49593 12.4507L3.48188 12.4429C3.26085 12.3201 2.87713 12.0733 2.63411 11.9143L2.55681 11.1026L2.5557 11.0909L2.55404 11.0793L2.54558 11.0201C2.44749 10.0204 2.44968 8.7483 3.28028 7.82498C3.99172 7.03852 5.22854 6.58002 7.23906 6.58002H7.47906H7.97906V6.08002V6.03002C7.97906 5.16039 7.99329 4.3797 8.36967 3.79411C8.7097 3.26508 9.44444 2.77002 11.2391 2.77002H12.7591C14.5546 2.77002 15.289 3.26312 15.6287 3.79069C16.0047 4.3748 16.0191 5.15499 16.0191 6.03002V6.07002ZM10.6291 12.58H10.1291V13.08V14.34L10.1291 14.3635C10.129 14.5988 10.129 14.8274 10.1518 15.0186C10.1757 15.2188 10.2319 15.458 10.4072 15.6575C10.5864 15.8615 10.8246 15.9507 11.0522 15.9951C11.2757 16.0388 11.5474 16.05 11.8591 16.05C12.1682 16.05 12.4385 16.0407 12.6599 16.0003C12.8846 15.9593 13.1261 15.8749 13.3086 15.6702C13.487 15.47 13.5428 15.2275 13.5664 15.026C13.5891 14.8325 13.5891 14.5987 13.5891 14.354L13.5891 14.33V13.08V12.58H13.0891H10.6291ZM15.0891 6.58002H15.5891V6.08002V6.03002V6.00666C15.5891 5.60304 15.5891 5.22042 15.549 4.89229C15.5075 4.55365 15.4175 4.21107 15.1912 3.92265C14.959 3.62663 14.6315 3.44789 14.2336 3.34295C13.8442 3.24027 13.3571 3.20002 12.7591 3.20002H11.2391C10.6414 3.20002 10.1546 3.2396 9.76561 3.34126C9.36815 3.44513 9.04018 3.62257 8.80743 3.91826C8.58063 4.20638 8.49055 4.54914 8.44915 4.88816C8.40903 5.21672 8.40904 5.60054 8.40906 6.00653L8.40906 6.03002V6.07002V6.08002V6.58002H8.90906H15.0891Z" fill="#09093C" stroke="#09093C"/>
<path d="M21.0882 14.6859C21.091 14.6845 21.0921 14.6844 21.0917 14.6845L21.0914 14.6845L21.0913 14.6845C21.0912 14.6845 21.0912 14.6845 21.0912 14.6845C21.0916 14.6846 21.0943 14.685 21.0978 14.6875C21.0993 14.6885 21.1003 14.6894 21.1009 14.6901C21.1009 14.6904 21.1009 14.6908 21.1008 14.6912L20.7422 18.6414C20.6411 19.6011 20.4015 20.4655 19.7475 21.1018C19.0957 21.7358 17.9407 22.2302 15.8098 22.2302H8.18984C6.05899 22.2302 4.90379 21.7359 4.25194 21.1028C3.59794 20.4676 3.35853 19.6056 3.25746 18.6513L2.91708 14.9071C2.91704 14.9067 2.91702 14.9063 2.917 14.906C2.91758 14.9054 2.91848 14.9045 2.91983 14.9036C2.92255 14.9017 2.92472 14.901 2.92548 14.9009C2.92598 14.901 2.92699 14.9013 2.92858 14.902C4.06031 15.4141 6.20244 16.3477 7.54973 16.7006C7.55917 16.703 7.57859 16.7131 7.59262 16.7432C8.30869 18.2746 9.84748 19.0202 11.8698 19.0202C13.88 19.0202 15.4309 18.2434 16.1468 16.7135C16.1609 16.6835 16.1805 16.673 16.1907 16.6703C17.6237 16.2933 19.9054 15.2487 21.0882 14.6859ZM2.92511 14.9008C2.9251 14.9008 2.92513 14.9008 2.92518 14.9008L2.92517 14.9008C2.92513 14.9008 2.92511 14.9008 2.92511 14.9008Z" fill="#09093C" stroke="#09093C"/>
</svg>
