<svg width="24" height="25" viewBox="0 0 24 25" fill="none" xmlns="http://www.w3.org/2000/svg">
<path d="M2.82424 5.2957L2.82425 5.2957L2.82528 5.29306C3.0367 4.7557 3.37327 4.25637 3.85311 3.8037L3.85319 3.80378L3.86076 3.79633C4.42529 3.24062 5.00458 3 5.59 3C5.79998 3 6.00543 3.04522 6.18363 3.13076L6.18361 3.13081L6.19047 3.13398C6.37619 3.2197 6.53388 3.34401 6.6589 3.5246L6.65888 3.52462L6.66221 3.52932L8.98221 6.79932L8.9822 6.79933L8.98423 6.80215C9.14612 7.02699 9.25497 7.22269 9.32723 7.39932L9.32716 7.39934L9.33043 7.40696C9.40094 7.57148 9.43 7.71384 9.43 7.82C9.43 7.95935 9.39009 8.11035 9.2929 8.27003L9.2887 8.27693L9.28472 8.28397C9.18264 8.46457 9.02379 8.6691 8.80645 8.88645L8.80638 8.88638L8.79967 8.89335L8.04255 9.68036C7.83378 9.89116 7.74 10.1505 7.74 10.43C7.74 10.5574 7.75672 10.6684 7.78493 10.7813L7.79184 10.8089L7.80184 10.8356C7.81947 10.8826 7.83717 10.9243 7.84971 10.9539C7.85095 10.9568 7.85214 10.9596 7.85327 10.9623C7.86758 10.9961 7.87269 11.0092 7.87566 11.0181L7.88974 11.0603L7.91105 11.0994C8.11468 11.4727 8.44946 11.9325 8.89831 12.463L8.89828 12.463L8.90192 12.4672C9.357 12.9931 9.84415 13.5311 10.3731 14.0702L10.3731 14.0702L10.3764 14.0736C10.4308 14.1279 10.487 14.1814 10.5381 14.2301L10.5402 14.2321C10.5935 14.2828 10.6415 14.3286 10.6864 14.3736L10.6864 14.3736L10.6909 14.378C10.8937 14.5757 10.8972 14.8957 10.6964 15.0964L8.84645 16.9464C8.65453 17.1384 8.34692 17.1457 8.13821 16.9511C8.08089 16.8939 8.02423 16.8399 7.97195 16.79L7.97024 16.7883C7.91491 16.7355 7.86432 16.6872 7.81436 16.6372C6.80215 15.6151 5.88922 14.545 5.07507 13.4269C4.27366 12.3126 3.63406 11.2059 3.17124 10.117C2.72168 9.02581 2.5 8.0016 2.5 7.04C2.5 6.41926 2.60943 5.83272 2.82424 5.2957Z" fill="#757C98" stroke="#757C98"/>
<path d="M21.2723 19.6964L21.2724 19.6964C21.2984 19.6444 21.3196 19.5895 21.35 19.5083C21.4304 19.282 21.4696 19.0501 21.4696 18.83C21.4696 18.6294 21.4283 18.4452 21.3487 18.2441C21.2808 18.0936 21.1676 17.9545 20.975 17.8211L20.9701 17.8178L20.9702 17.8177L17.6644 15.4707C17.4347 15.3148 17.2373 15.2052 17.0603 15.1328C16.8921 15.064 16.7563 15.04 16.6396 15.04C16.4921 15.04 16.3511 15.0789 16.1896 15.1771L16.1755 15.1857L16.1609 15.1933C15.9922 15.2814 15.7929 15.4338 15.5632 15.6636L15.5608 15.6659L15.5608 15.6659L14.8018 16.4149C14.6034 16.6127 14.3486 16.73 14.0396 16.73C13.9109 16.73 13.7671 16.7156 13.614 16.6582L13.6032 16.6542L13.5926 16.6496C13.5545 16.6332 13.5189 16.6169 13.4916 16.6044C13.4889 16.6032 13.4863 16.602 13.4838 16.6008C13.4522 16.5863 13.4357 16.579 13.4239 16.5743L13.4002 16.5648L13.3776 16.553C13.2373 16.4795 13.0857 16.3888 12.9249 16.2819L10.347 18.8598C10.5737 19.0361 10.8073 19.2098 11.0459 19.3873C12.158 20.1967 13.2746 20.8367 14.3856 21.3101C15.4854 21.7787 16.5087 22 17.4496 22C18.0752 22 18.6512 21.8825 19.1812 21.6669L19.2718 21.63H19.2749C19.7823 21.4106 20.2414 21.0756 20.6691 20.6043L21.2723 19.6964ZM21.2723 19.6964L21.2675 19.7065M21.2723 19.6964L21.2675 19.7065M21.2675 19.7065C21.1174 20.0244 20.9243 20.3226 20.6693 20.604L21.2675 19.7065Z" fill="#757C98" stroke="#757C98"/>
</svg>
