<svg width="32" height="32" viewBox="0 0 32 32" fill="none" xmlns="http://www.w3.org/2000/svg">
<path d="M3.61025 6.3322L3.61026 6.3322L3.6113 6.32957C3.90272 5.58887 4.36595 4.90288 5.02246 4.28353L5.02254 4.28362L5.03011 4.27616C5.80797 3.51045 6.6206 3.1665 7.45268 3.1665C7.756 3.1665 8.05478 3.23173 8.31632 3.35727L8.31629 3.35732L8.32315 3.36048C8.59554 3.4862 8.82989 3.67051 9.01492 3.93778L9.01489 3.93779L9.01822 3.94249L12.1116 8.30249L12.1115 8.3025L12.1136 8.30532C12.3355 8.6135 12.4877 8.88586 12.5899 9.13582L12.5898 9.13585L12.5931 9.14346C12.6936 9.37799 12.7393 9.59034 12.7393 9.75984C12.7393 9.97919 12.6761 10.2102 12.5322 10.4465L12.528 10.4534L12.5241 10.4605C12.3787 10.7177 12.1565 11.0023 11.8591 11.2996L11.8591 11.2996L11.8524 11.3065L10.842 12.3567C10.5965 12.6042 10.486 12.907 10.486 13.2398C10.486 13.3939 10.5061 13.5283 10.5409 13.6678L10.5479 13.6954L10.5579 13.7221C10.5801 13.7813 10.6023 13.8339 10.6191 13.8735C10.6208 13.8773 10.6223 13.8811 10.6239 13.8847C10.6428 13.9293 10.652 13.9524 10.6583 13.9713L10.6724 14.0135L10.6937 14.0526C10.9574 14.5359 11.3955 15.139 11.991 15.8428L11.991 15.8428L11.9946 15.847C12.5997 16.5462 13.2468 17.2609 13.9491 17.9767L13.9491 17.9767L13.9525 17.9801C14.0234 18.051 14.0971 18.1212 14.1657 18.1865L14.1679 18.1886C14.2387 18.256 14.3042 18.3184 14.3658 18.3801L14.3658 18.3801L14.3703 18.3845C14.7064 18.7122 14.7132 19.2455 14.3791 19.5796L11.9125 22.0463C11.5906 22.3681 11.0766 22.3756 10.7345 22.0545C10.6587 21.9789 10.5837 21.9073 10.5131 21.8399L10.5113 21.8382C10.4376 21.7678 10.3687 21.702 10.3004 21.6338C8.94483 20.265 7.7219 18.8315 6.63109 17.3334C5.55633 15.8391 4.69674 14.3524 4.07392 12.8868C3.46769 11.4156 3.16602 10.0281 3.16602 8.71984C3.16602 7.87243 3.31544 7.06923 3.61025 6.3322Z" fill="#09093C" stroke="#09093C"/>
<path d="M28.5135 25.6699L28.5136 25.6699C28.5529 25.5913 28.584 25.5098 28.6245 25.4018C28.7382 25.0822 28.7941 24.7536 28.7941 24.4402C28.7941 24.1463 28.7328 23.8787 28.6198 23.5942C28.5153 23.3604 28.3422 23.1514 28.0628 22.958L28.058 22.9546L28.058 22.9546L23.6489 19.8242C23.3358 19.6116 23.0617 19.4587 22.8115 19.3563C22.57 19.2575 22.3675 19.2202 22.1874 19.2202C21.9567 19.2202 21.7389 19.2824 21.5008 19.4273L21.4867 19.4359L21.4721 19.4435C21.2267 19.5715 20.9474 19.7873 20.6343 20.1004L20.632 20.1028L20.632 20.1028L19.6197 21.1017C19.3846 21.3362 19.0865 21.4735 18.7208 21.4735C18.5621 21.4735 18.3916 21.4558 18.2119 21.3884L18.2011 21.3843L18.1905 21.3798C18.1416 21.3588 18.0961 21.338 18.0595 21.3212C18.0559 21.3195 18.0525 21.318 18.0491 21.3164C18.0075 21.2973 17.9818 21.2858 17.9618 21.2778L17.9381 21.2683L17.9154 21.2565C17.7021 21.1447 17.4667 21.0012 17.2139 20.8275L13.5464 24.495C13.8975 24.7723 14.2605 25.0424 14.6304 25.3175C16.1225 26.4036 17.6224 27.2635 19.1168 27.9002C20.5999 28.5322 21.9865 28.8335 23.2674 28.8335C24.1231 28.8335 24.9124 28.6727 25.639 28.3771L25.7296 28.3402H25.7354C26.4489 28.0375 27.0904 27.5715 27.6838 26.9176L28.5135 25.6699ZM28.5135 25.6699L28.5087 25.68M28.5135 25.6699L28.5087 25.68M28.5087 25.68C28.3019 26.118 28.0355 26.5295 27.6838 26.9176L28.5087 25.68Z" fill="#09093C" stroke="#09093C"/>
</svg>
