<svg width="24" height="25" viewBox="0 0 24 25" fill="none" xmlns="http://www.w3.org/2000/svg">
<path d="M13.5 5.1099V8.0399C13.5 8.7099 12.96 9.2499 12.29 9.2499H3.21C2.53 9.2499 2 8.6899 2 8.0199C2.01 6.8899 2.46 5.8599 3.21 5.1099C3.96 4.3599 5 3.8999 6.14 3.8999H12.29C12.96 3.8999 13.5 4.4399 13.5 5.1099Z" fill="#09093C"/>
<path d="M2 11.96V16.96C2 19.25 3.85 21.1 6.14 21.1H17.85C20.14 21.1 22 19.24 22 16.95V11.96C22 11.29 21.46 10.75 20.79 10.75H3.21C2.54 10.75 2 11.29 2 11.96ZM8 17.75H6C5.59 17.75 5.25 17.41 5.25 17C5.25 16.59 5.59 16.25 6 16.25H8C8.41 16.25 8.75 16.59 8.75 17C8.75 17.41 8.41 17.75 8 17.75ZM14.5 17.75H10.5C10.09 17.75 9.75 17.41 9.75 17C9.75 16.59 10.09 16.25 10.5 16.25H14.5C14.91 16.25 15.25 16.59 15.25 17C15.25 17.41 14.91 17.75 14.5 17.75Z" fill="#09093C"/>
<path d="M19.97 2.25H17.03C15.76 2.25 15 3.01 15 4.28V7.22C15 8.49 15.76 9.25 17.03 9.25H19.97C21.24 9.25 22 8.49 22 7.22V4.28C22 3.01 21.24 2.25 19.97 2.25ZM18.01 7.82C17.98 7.85 17.91 7.89 17.86 7.89L16.82 8.04C16.79 8.05 16.75 8.05 16.72 8.05C16.57 8.05 16.44 8 16.35 7.9C16.23 7.78 16.18 7.61 16.21 7.43L16.36 6.39C16.37 6.34 16.4 6.27 16.43 6.24L18.13 4.54C18.16 4.61 18.19 4.69 18.22 4.77C18.26 4.85 18.3 4.92 18.34 4.99C18.37 5.05 18.41 5.11 18.45 5.15C18.49 5.21 18.53 5.27 18.56 5.3C18.58 5.33 18.59 5.34 18.6 5.35C18.69 5.46 18.79 5.56 18.88 5.63C18.9 5.65 18.92 5.67 18.93 5.67C18.98 5.71 19.04 5.76 19.08 5.79C19.14 5.83 19.19 5.87 19.25 5.9C19.32 5.94 19.4 5.98 19.48 6.02C19.56 6.06 19.64 6.09 19.71 6.11L18.01 7.82ZM20.4 5.43L20.07 5.76C20.06 5.78 20.03 5.79 20 5.79C19.99 5.79 19.98 5.79 19.97 5.79C19.25 5.58 18.68 5.01 18.47 4.29C18.46 4.25 18.47 4.21 18.5 4.18L18.83 3.85C19.37 3.31 19.88 3.32 20.41 3.85C20.68 4.12 20.81 4.38 20.81 4.64C20.8 4.9 20.67 5.16 20.4 5.43Z" fill="#09093C"/>
</svg>
