<svg width="70" height="73" viewBox="0 0 70 73" fill="none" xmlns="http://www.w3.org/2000/svg">
<mask id="mask0_493_1218" style="mask-type:alpha" maskUnits="userSpaceOnUse" x="0" y="9" width="64" height="64">
<rect y="9" width="64" height="64" rx="16" fill="#D9D9D9"/>
</mask>
<g mask="url(#mask0_493_1218)">
<rect x="0.0449219" y="8.98438" width="64" height="64" fill="url(#paint0_linear_493_1218)"/>
<path d="M57.9672 37.5961C53.492 34.3739 48.3007 39.5652 47.7637 42.9663H78.1953C78.3743 38.1331 78.0521 28.2876 75.3311 27.5715C71.9299 26.6765 66.9177 31.6887 66.2016 34.1949C63.8745 33.2998 61.3684 31.6887 57.9672 37.5961Z" fill="white"/>
<path d="M8.71051 47.6937C13.1857 44.4715 18.377 49.6628 18.9141 53.064H-11.5175C-11.6966 48.2307 -11.3743 38.3852 -8.65339 37.6692C-5.25221 36.7741 -0.239946 41.7864 0.476093 44.2925C2.80322 43.3975 5.30935 41.7864 8.71051 47.6937Z" fill="white"/>
<rect x="-4.74414" y="59.3574" width="73.1845" height="22.6872" fill="#27AFFF"/>
<ellipse cx="26.4368" cy="67.8892" rx="23.4619" ry="1.95987" transform="rotate(0.975392 26.4368 67.8892)" fill="#2189C6"/>
<path d="M-6.00586 40.8051L-6.00584 38.794C-6.00584 38.794 14.3528 32.0117 23.3382 32.6345L37.4055 60.8724C28.1304 60.8724 16.1654 67.7187 7.95371 70.0108L7.54552 70.1247L-6.00586 40.8051Z" fill="#2F3956"/>
<path d="M-6.09897 38.7776C-6.09897 38.7776 -11.9366 40.7828 -4.39558 38.1925C3.14549 35.6021 14.0475 29.3453 23.033 29.9681L37.0169 59.9337C27.7418 59.9337 16.5048 66.3371 8.29313 68.6292L7.88494 68.7431L-6.09897 38.7776Z" fill="#4E5771"/>
<path d="M-5.06381 36.7249C-5.06381 36.7249 -10.9015 38.7301 -3.36042 36.1397C4.18065 33.5493 13.8432 29.2758 22.8286 29.8986L36.8125 59.8642C27.5374 59.8642 17.54 64.2844 9.32829 66.5765L8.9201 66.6904L-5.06381 36.7249Z" fill="#72ADF7"/>
<path d="M-4.50912 34.8374C-4.50912 34.8374 -10.3468 36.8426 -2.80573 34.2522C4.73534 31.6619 13.5217 28.9644 22.5071 29.5873L36.491 59.5528C27.2159 59.5528 18.0947 62.3969 9.88298 64.689L9.47479 64.8029L-4.50912 34.8374Z" fill="#D1E5FE"/>
<path d="M-4.26694 32.7622C-4.26694 32.7622 -10.1046 34.7675 -2.56354 32.1771C4.97752 29.5867 13.5203 28.5697 22.5057 29.1925L36.4897 59.1581C27.2145 59.1581 18.3368 60.3217 10.1252 62.6138L9.71698 62.7278L-4.26694 32.7622Z" fill="#FAFBFB"/>
<path d="M23.8105 31.5839L23.8106 29.5728C23.8106 29.5728 37.2739 29.6857 46.2594 30.3085L60.3267 58.5464C51.0515 58.5464 45.9818 58.4975 37.7701 60.7896L37.3619 60.9035L23.8105 31.5839Z" fill="#2F3956"/>
<path d="M22.985 30.0465C22.985 30.0465 17.1473 32.0518 24.6884 29.4614C32.2295 26.871 37.0395 27.1203 46.0249 27.7432L60.0088 57.7087C50.7337 57.7087 45.5888 57.606 37.3771 59.8981L36.9689 60.012L22.985 30.0465Z" fill="#72ADF7"/>
<path d="M22.7838 29.8466C22.7838 29.8466 16.9462 31.8518 24.4872 29.2615C32.0283 26.6711 37.2124 25.9386 46.1978 26.5615L60.1817 56.527C50.9066 56.527 45.3876 57.4061 37.176 59.6982L36.7678 59.8121L22.7838 29.8466Z" fill="#D1E5FE"/>
<path d="M47.329 25.2681C47.329 25.2681 37.6189 28.7718 45.16 26.1814C52.701 23.5911 33.1985 29.599 22.4707 29.599L36.4546 59.5645C46.5824 56.8686 49.9074 56.0782 55.8799 55.9225C57.7102 55.8748 59.5349 55.6702 61.313 55.2336L47.329 25.2681Z" fill="white"/>
<path d="M22.2715 29.2542L23.9749 28.6691C31.6822 25.4602 38.2015 22.5237 47.1869 23.1466L60.8183 53.3726C51.437 54.7266 44.0325 54.564 37.0239 58.8797C36.7846 59.0271 36.526 59.1442 36.2554 59.2197L22.2715 29.2542Z" fill="white"/>
<path d="M5.91659 43.8397L7.11067 38.3883L10.6234 41.6192L12.6418 35.1013L16.4491 39.5288L18.9891 32.186" stroke="#5AA3FF" stroke-linecap="round" stroke-linejoin="round"/>
<rect width="8.89907" height="2.31866" rx="1.15933" transform="matrix(0.971399 -0.237453 0.175033 0.984563 7.17969 47.7686)" fill="#CFE4FC"/>
<rect width="11.2272" height="2.31866" rx="1.15933" transform="matrix(0.971399 -0.237453 0.175033 0.984563 38.5449 39.4443)" fill="#D1E5FE"/>
<rect width="19.6395" height="2.31866" rx="1.15933" transform="matrix(0.971399 -0.237453 0.175033 0.984563 8.8457 52.3613)" fill="#D1E5FE"/>
<rect width="17.4295" height="2.31866" rx="1.15933" transform="matrix(0.971399 -0.237453 0.175033 0.984563 11.0859 56.8691)" fill="#D1E5FE"/>
<rect width="14.2117" height="2.31866" rx="1.15933" transform="matrix(0.971399 -0.237453 0.175033 0.984563 37.7168 44.1738)" fill="#D1E5FE"/>
<rect width="11.0687" height="2.31866" rx="1.15933" transform="matrix(0.971399 -0.237453 0.175033 0.984563 42.832 47.958)" fill="#D1E5FE"/>
<g clip-path="url(#clip0_493_1218)">
<rect width="7.95948" height="7.95948" rx="3.97974" transform="matrix(0.966235 -0.257663 0.485643 0.874157 34.7812 27.9521)" fill="white"/>
<path d="M42.4026 29.5381C42.1415 29.0682 41.6784 28.7034 41.1414 28.4934C40.6037 28.2832 39.9916 28.2277 39.4322 28.3768C38.8728 28.526 38.4724 28.8516 38.2769 29.2573C38.0816 29.6625 38.0911 30.1483 38.3522 30.6182C38.6132 31.0881 39.0764 31.453 39.6134 31.663C40.1511 31.8731 40.7632 31.9287 41.3226 31.7795C41.8819 31.6304 42.2824 31.3048 42.4779 30.8991C42.5785 30.6911 42.6236 30.4638 42.6107 30.2302C42.5978 29.9967 42.5271 29.7615 42.4026 29.5381ZM39.8375 34.1289C40.0266 34.4692 41.1269 34.5664 42.6459 34.1614C44.0708 33.7814 44.8871 33.1731 44.698 32.8328C44.32 32.1523 42.9884 31.726 41.5116 32.1198C39.9927 32.5248 39.4594 33.4484 39.8375 34.1289Z" fill="#5AA3FF"/>
</g>
</g>
<circle cx="56.688" cy="14.2173" r="12.4185" fill="#B9660C"/>
<circle cx="54.9087" cy="12.7515" r="12.4185" fill="#FF931E"/>
<circle cx="54.91" cy="12.7517" r="9.86308" fill="#FFC85A"/>
<path d="M59.0754 8.12171L53.9405 10.2262C53.5881 10.3653 53.2681 10.5754 53.0002 10.8432C52.7324 11.1111 52.5223 11.4311 52.3832 11.7835L50.2787 16.9184C50.2441 17.0063 50.2458 17.1043 50.2832 17.1911C50.3207 17.2778 50.3909 17.3462 50.4786 17.3813C50.5635 17.4128 50.6568 17.4128 50.7417 17.3813L55.8766 15.2769C56.2289 15.1377 56.5489 14.9277 56.8168 14.6598C57.0847 14.3919 57.2947 14.0719 57.4339 13.7196L59.5383 8.58469C59.5729 8.49676 59.5713 8.39873 59.5338 8.31199C59.4964 8.22525 59.4261 8.15685 59.3384 8.12171C59.2535 8.09029 59.1602 8.09029 59.0754 8.12171ZM54.9296 13.7827C54.7215 13.7827 54.518 13.721 54.345 13.6054C54.1719 13.4898 54.0371 13.3254 53.9574 13.1332C53.8778 12.9409 53.857 12.7293 53.8976 12.5252C53.9382 12.3211 54.0384 12.1336 54.1855 11.9864C54.3327 11.8393 54.5202 11.7391 54.7243 11.6985C54.9284 11.6579 55.14 11.6787 55.3322 11.7583C55.5245 11.838 55.6888 11.9729 55.8045 12.1459C55.9201 12.3189 55.9818 12.5224 55.9818 12.7305C55.9818 13.0096 55.8709 13.2772 55.6736 13.4745C55.4763 13.6719 55.2086 13.7827 54.9296 13.7827Z" fill="#B9660C"/>
<defs>
<linearGradient id="paint0_linear_493_1218" x1="32.0449" y1="8.98437" x2="32.0449" y2="60.9247" gradientUnits="userSpaceOnUse">
<stop stop-color="#90C9F9"/>
<stop offset="1" stop-color="#B6D9FA"/>
</linearGradient>
<clipPath id="clip0_493_1218">
<rect width="7.95948" height="7.95948" rx="3.97974" transform="matrix(0.966235 -0.257663 0.485643 0.874157 34.7812 27.9521)" fill="white"/>
</clipPath>
</defs>
</svg>
