<svg width="56" height="56" viewBox="0 0 56 56" fill="none" xmlns="http://www.w3.org/2000/svg">
<rect width="56" height="56" rx="8" fill="#EB5757" fill-opacity="0.09"/>
<path d="M15.2059 34.3544L15.2054 34.3457L15.2045 34.3371C15.1795 34.0869 15.167 33.8368 15.167 33.5868V26.6668C15.167 26.2096 15.5431 25.8335 16.0003 25.8335H40.0003C40.4575 25.8335 40.8337 26.2096 40.8337 26.6668V33.5868C40.8337 33.8368 40.8212 34.0869 40.7961 34.3371L40.7953 34.3457L40.7947 34.3544C40.6677 36.3108 40.0052 37.8482 38.9268 38.9266C37.8483 40.0051 36.3109 40.6675 34.3546 40.7945L34.3459 40.7951L34.3372 40.796C34.087 40.821 33.837 40.8335 33.587 40.8335H22.4137C22.1637 40.8335 21.9136 40.821 21.6634 40.796L21.6547 40.7951L21.6461 40.7945C19.6897 40.6675 18.1523 40.0051 17.0739 38.9266C15.9954 37.8482 15.333 36.3108 15.2059 34.3544ZM35.6812 34.9335L35.683 34.9308C36.3283 33.9629 36.3283 32.7041 35.683 31.7361L35.6812 31.7335C34.9957 30.7194 34.0517 29.8737 32.9449 29.3267C32.2055 28.9497 31.3024 29.2481 30.9386 29.9922C30.5671 30.7383 30.8567 31.6423 31.6055 32.0084C32.2183 32.3153 32.7447 32.7745 33.132 33.3335C32.7447 33.8925 32.2182 34.3517 31.6055 34.6586C30.8559 35.0251 30.5665 35.9306 30.9398 36.6771C31.2018 37.2012 31.7268 37.5002 32.2803 37.5002C32.5184 37.5002 32.7367 37.4353 32.9272 37.3487L32.9345 37.3454L32.9416 37.3419C34.0498 36.7949 34.995 35.9486 35.6812 34.9335ZM25.3409 36.6771C25.7147 35.9295 25.4236 35.0242 24.6617 34.6584C24.0634 34.3525 23.537 33.8941 23.137 33.3335C23.537 32.7729 24.0634 32.3145 24.6617 32.0085C25.4228 31.6432 25.7141 30.7395 25.3421 29.9923C24.9786 29.2485 24.0762 28.95 23.337 29.3261C22.2165 29.873 21.2708 30.7195 20.5972 31.7368C19.9525 32.7045 19.9525 33.9626 20.5972 34.9302C21.2712 35.9481 22.2177 36.795 23.339 37.3419C23.5364 37.4401 23.7716 37.5002 24.0003 37.5002C24.5368 37.5002 25.0772 37.2044 25.3409 36.6771Z" fill="#EB5757" stroke="#EB5757"/>
<path d="M40.0003 23.4998H40L16.0003 23.5132C16.0003 23.5132 16.0002 23.5132 16.0001 23.5132C15.543 23.513 15.167 23.137 15.167 22.6798V22.4132C15.167 22.1632 15.1795 21.9131 15.2045 21.6629L15.2054 21.6543L15.2059 21.6456C15.333 19.6892 15.9954 18.1518 17.0739 17.0734C18.1523 15.9949 19.6897 15.3325 21.6461 15.2055L21.6547 15.2049L21.6634 15.204C21.9136 15.179 22.1637 15.1665 22.4137 15.1665H33.587C33.837 15.1665 34.087 15.179 34.3372 15.204L34.3459 15.2049L34.3546 15.2055C36.3109 15.3325 37.8483 15.9949 38.9268 17.0734C40.0052 18.1518 40.6677 19.6892 40.7947 21.6456L40.7953 21.6543L40.7961 21.6629C40.8212 21.9131 40.8337 22.1632 40.8337 22.4132V22.6665C40.8337 23.1237 40.4575 23.4998 40.0003 23.4998Z" fill="#EB5757" stroke="#EB5757"/>
</svg>
