<svg width="32" height="32" viewBox="0 0 32 32" fill="none" xmlns="http://www.w3.org/2000/svg">
<path d="M3.44006 25.3465L3.4134 25.3732C3.0534 24.5865 2.82673 23.6932 2.7334 22.7065C2.82673 23.6799 3.08006 24.5599 3.44006 25.3465Z" fill="#757C98"/>
<path d="M12.0005 13.8398C13.7531 13.8398 15.1738 12.4191 15.1738 10.6665C15.1738 8.91391 13.7531 7.49316 12.0005 7.49316C10.2479 7.49316 8.82715 8.91391 8.82715 10.6665C8.82715 12.4191 10.2479 13.8398 12.0005 13.8398Z" fill="#757C98"/>
<path d="M21.587 2.6665H10.4137C5.56033 2.6665 2.66699 5.55984 2.66699 10.4132V21.5865C2.66699 23.0398 2.92033 24.3065 3.41366 25.3732C4.56033 27.9065 7.01366 29.3332 10.4137 29.3332H21.587C26.4403 29.3332 29.3337 26.4398 29.3337 21.5865V18.5332V10.4132C29.3337 5.55984 26.4403 2.6665 21.587 2.6665ZM27.1603 16.6665C26.1203 15.7732 24.4403 15.7732 23.4003 16.6665L17.8537 21.4265C16.8137 22.3198 15.1337 22.3198 14.0937 21.4265L13.6403 21.0532C12.6937 20.2265 11.187 20.1465 10.1203 20.8665L5.13366 24.2132C4.84033 23.4665 4.66699 22.5998 4.66699 21.5865V10.4132C4.66699 6.65317 6.65366 4.6665 10.4137 4.6665H21.587C25.347 4.6665 27.3337 6.65317 27.3337 10.4132V16.8132L27.1603 16.6665Z" fill="#757C98"/>
</svg>
