<svg width="65" height="71" viewBox="0 0 65 71" fill="none" xmlns="http://www.w3.org/2000/svg">
<mask id="mask0_493_1257" style="mask-type:alpha" maskUnits="userSpaceOnUse" x="0" y="7" width="64" height="64">
<rect y="7" width="64" height="64" rx="16" fill="#D9D9D9"/>
</mask>
<g mask="url(#mask0_493_1257)">
<rect x="0.0449219" y="6.98438" width="64" height="64" fill="url(#paint0_linear_493_1257)"/>
<path d="M57.9672 35.5961C53.492 32.3739 48.3007 37.5652 47.7637 40.9663H78.1953C78.3743 36.1331 78.0521 26.2876 75.3311 25.5715C71.9299 24.6765 66.9177 29.6887 66.2016 32.1949C63.8745 31.2998 61.3684 29.6887 57.9672 35.5961Z" fill="white"/>
<path d="M8.71051 45.6937C13.1857 42.4715 18.377 47.6628 18.9141 51.064H-11.5175C-11.6966 46.2307 -11.3743 36.3852 -8.65339 35.6692C-5.25221 34.7741 -0.239946 39.7864 0.476093 42.2925C2.80322 41.3975 5.30935 39.7864 8.71051 45.6937Z" fill="white"/>
<rect x="-4.74414" y="57.3574" width="73.1845" height="22.6872" fill="#27AFFF"/>
<ellipse cx="29.8556" cy="64.7677" rx="19.7082" ry="1.95987" transform="rotate(0.975392 29.8556 64.7677)" fill="#2189C6"/>
<path d="M48.327 25.1064C49.9839 25.1064 51.327 26.4496 51.327 28.1064V54.4297C51.327 55.2674 50.3588 55.7338 49.7037 55.2117L43.8815 50.5711C43.8008 50.5068 43.7171 50.4469 43.6308 50.3916V34.9968C43.6308 33.3399 42.2877 31.9968 40.6308 31.9968H18.084V28.1064C18.084 26.4496 19.4271 25.1064 21.084 25.1064H48.327Z" fill="#5FADF5"/>
<path d="M9.07031 37.0996C9.07031 35.4428 10.4135 34.0996 12.0703 34.0996H39.3134C40.9702 34.0996 42.3134 35.4428 42.3134 37.0996V55.9103C42.3134 57.5671 40.9702 58.9103 39.3134 58.9103H25.6918H18.3857C17.7064 58.9103 17.0471 59.1409 16.5159 59.5643L10.6936 64.2049C10.0385 64.727 9.07031 64.2605 9.07031 63.4229L9.07031 58.9103V37.0996Z" fill="#7190C5"/>
<path d="M7.67188 35.7905C7.67188 34.1337 9.01502 32.7905 10.6719 32.7905H37.9149C39.5718 32.7905 40.9149 34.1337 40.9149 35.7905V54.6012C40.9149 56.2581 39.5718 57.6012 37.9149 57.6012H24.2934H16.9873C16.3079 57.6012 15.6487 57.8318 15.1174 58.2552L9.29516 62.8958C8.64011 63.4179 7.67188 62.9514 7.67188 62.1138L7.67188 57.6012V35.7905Z" fill="white"/>
<circle cx="19.3693" cy="41.3" r="1.95133" fill="#5AA3FF"/>
<circle cx="29.0627" cy="41.3" r="1.95133" fill="#5AA3FF"/>
<path d="M17.4883 46.8945V46.8945C21.0693 51.1809 27.6242 51.2791 31.332 47.102L31.5162 46.8945" stroke="#5AA3FF" stroke-width="2" stroke-linecap="round"/>
<rect x="6.13086" y="20.2422" width="2.47461" height="8.6928" rx="1.2373" transform="rotate(-37.6903 6.13086 20.2422)" fill="#4F5B5E"/>
<rect x="14.5117" y="17.7954" width="2.47461" height="6.40939" rx="1.2373" transform="rotate(-4.54337 14.5117 17.7954)" fill="#4F5B5E"/>
<rect x="3.40039" y="29.5796" width="2.47461" height="6.40939" rx="1.2373" transform="rotate(-83.4591 3.40039 29.5796)" fill="#4F5B5E"/>
</g>
<path d="M55.6161 19.4268C55.2761 19.5468 54.7161 19.5468 54.3761 19.4268C51.4761 18.4368 44.9961 14.3068 44.9961 7.3068C44.9961 4.2168 47.4861 1.7168 50.5561 1.7168C52.3761 1.7168 53.9861 2.5968 54.9961 3.9568C56.0061 2.5968 57.6261 1.7168 59.4361 1.7168C62.5061 1.7168 64.9961 4.2168 64.9961 7.3068C64.9961 14.3068 58.5161 18.4368 55.6161 19.4268Z" fill="#B9660C"/>
<path d="M54.288 18.1455C53.948 18.2655 53.388 18.2655 53.048 18.1455C50.148 17.1555 43.668 13.0255 43.668 6.02555C43.668 2.93555 46.158 0.435547 49.228 0.435547C51.048 0.435547 52.658 1.31555 53.668 2.67555C54.678 1.31555 56.298 0.435547 58.108 0.435547C61.178 0.435547 63.668 2.93555 63.668 6.02555C63.668 13.0255 57.188 17.1555 54.288 18.1455Z" fill="#FFC85A"/>
<path d="M43.668 10.4263H49.8498L51.8498 4.42627L55.3043 14.2445L58.0316 7.33538L59.3044 10.4263H63.668" stroke="#B9660C" stroke-width="1.65409" stroke-linecap="round" stroke-linejoin="round"/>
<defs>
<linearGradient id="paint0_linear_493_1257" x1="32.0449" y1="6.98437" x2="32.0449" y2="58.9247" gradientUnits="userSpaceOnUse">
<stop stop-color="#90C9F9"/>
<stop offset="1" stop-color="#B6D9FA"/>
</linearGradient>
</defs>
</svg>
