<svg width="24" height="24" viewBox="0 0 24 24" fill="none" xmlns="http://www.w3.org/2000/svg">
<path d="M18.5102 21.0701L18.8602 19.6001C18.9402 19.2301 19.2302 18.9501 19.6002 18.8601L18.5102 21.0701ZM18.5102 21.0701C18.3202 21.8701 17.3002 22.1201 16.7702 21.4901L18.5102 21.0701ZM18.3728 19.4888C18.4978 18.921 18.9414 18.5058 19.4821 18.3743L19.4852 18.3735L19.4852 18.3735L21.135 17.9836L18.3728 19.4888ZM18.3728 19.4888L18.0238 20.9543L18.0238 20.9546C17.927 21.3622 17.4136 21.4782 17.1529 21.1682L17.1529 21.1682L17.1476 21.1621L14.1594 17.7242C14.1592 17.7239 14.159 17.7236 14.1588 17.7234C16.029 17.2667 17.7086 16.2195 18.945 14.7294L18.9457 14.7286C18.949 14.7246 18.9519 14.7224 18.954 14.721L21.1667 16.9337C21.4509 17.2179 21.4954 17.4843 21.464 17.6492C21.4331 17.8118 21.3219 17.9392 21.1352 17.9835L18.3728 19.4888ZM18.9467 14.7136L18.9467 14.7137C18.9467 14.7136 18.9467 14.7136 18.9467 14.7136ZM14.1521 17.7247C14.1519 17.7248 14.1517 17.7249 14.1515 17.725L14.1582 17.7225C14.1582 17.722 14.1582 17.7208 14.1586 17.7193C14.1588 17.7187 14.1589 17.7184 14.1589 17.7184C14.1589 17.7185 14.1584 17.7195 14.1567 17.7212C14.1554 17.7225 14.1537 17.7237 14.1521 17.7247ZM14.1581 17.7223L14.1581 17.7224L14.1581 17.7223Z" fill="white" stroke="white"/>
<path d="M2.70016 18.4701L4.35016 18.8601C4.72016 18.9501 5.01016 19.2301 5.09016 19.6001L5.44016 21.0701C5.63016 21.8701 6.65016 22.1201 7.18016 21.4901L10.1702 18.0501C10.4102 17.7701 10.2802 17.3301 9.92016 17.2401C8.15016 16.8101 6.56016 15.8201 5.39016 14.4101C5.20016 14.1801 4.86016 14.1501 4.65016 14.3601L2.43016 16.5801C1.67016 17.3401 1.94016 18.2901 2.70016 18.4701Z" fill="white"/>
<path d="M12 2C8.13 2 5 5.13 5 9C5 10.45 5.43 11.78 6.17 12.89C7.25 14.49 8.96 15.62 10.95 15.91C11.29 15.97 11.64 16 12 16C12.36 16 12.71 15.97 13.05 15.91C15.04 15.62 16.75 14.49 17.83 12.89C18.57 11.78 19 10.45 19 9C19 5.13 15.87 2 12 2ZM15.06 8.78L14.23 9.61C14.09 9.75 14.01 10.02 14.06 10.22L14.3 11.25C14.49 12.06 14.06 12.38 13.34 11.95L12.34 11.36C12.16 11.25 11.86 11.25 11.68 11.36L10.68 11.95C9.96 12.37 9.53 12.06 9.72 11.25L9.96 10.22C10 10.03 9.93 9.75 9.79 9.61L8.94 8.78C8.45 8.29 8.61 7.8 9.29 7.69L10.36 7.51C10.54 7.48 10.75 7.32 10.83 7.16L11.42 5.98C11.74 5.34 12.26 5.34 12.58 5.98L13.17 7.16C13.25 7.32 13.46 7.48 13.65 7.51L14.72 7.69C15.39 7.8 15.55 8.29 15.06 8.78Z" fill="white"/>
</svg>
