<svg width="64" height="72" viewBox="0 0 64 72" fill="none" xmlns="http://www.w3.org/2000/svg">
<mask id="mask0_493_1184" style="mask-type:alpha" maskUnits="userSpaceOnUse" x="0" y="8" width="64" height="64">
<rect y="8" width="64" height="64" rx="16" fill="#D9D9D9"/>
</mask>
<g mask="url(#mask0_493_1184)">
<rect x="0.0449219" y="7.98438" width="64" height="64" fill="url(#paint0_linear_493_1184)"/>
<path d="M57.9672 36.5961C53.492 33.3739 48.3007 38.5652 47.7637 41.9663H78.1953C78.3743 37.1331 78.0521 27.2876 75.3311 26.5715C71.9299 25.6765 66.9177 30.6887 66.2016 33.1949C63.8745 32.2998 61.3684 30.6887 57.9672 36.5961Z" fill="white"/>
<path d="M8.71051 46.6937C13.1857 43.4715 18.377 48.6628 18.9141 52.064H-11.5175C-11.6966 47.2307 -11.3743 37.3852 -8.65339 36.6692C-5.25221 35.7741 -0.239946 40.7864 0.476093 43.2925C2.80322 42.3975 5.30935 40.7864 8.71051 46.6937Z" fill="white"/>
<rect x="-4.74414" y="58.3574" width="73.1845" height="22.6872" fill="#27AFFF"/>
<ellipse cx="31.3917" cy="66.3766" rx="9.75264" ry="1.95987" transform="rotate(0.975392 31.3917 66.3766)" fill="#2189C6"/>
<path d="M36.6114 53.9708C37.9832 53.9708 39.0736 52.8448 39.3912 51.5104C40.144 48.3471 42.2189 45.502 44.2901 42.8957C46.4799 40.1401 47.7881 36.6525 47.7881 32.8594C47.7881 23.9433 40.5602 16.7153 31.644 16.7153C22.7279 16.7153 15.5 23.9433 15.5 32.8594C15.5 36.6525 16.8082 40.1401 18.998 42.8957C21.0692 45.502 23.1441 48.3471 23.8969 51.5104C24.2145 52.8448 25.3049 53.9708 26.6766 53.9708H36.6114Z" fill="white"/>
<path d="M29.2598 52.526V37.8501C29.2598 36.2429 27.9568 34.9399 26.3496 34.9399V34.9399C24.7424 34.9399 23.4395 36.2429 23.4395 37.8501V38.0684C23.4395 39.7961 24.8401 41.1968 26.5679 41.1968H35.8803C37.6081 41.1968 39.0088 39.7961 39.0088 38.0684V37.9455C39.0088 36.2856 37.6631 34.9399 36.0032 34.9399V34.9399C34.3433 34.9399 32.9977 36.2856 32.9977 37.9455V52.526" stroke="#5AA3FF" stroke-width="1.91357"/>
<path fill-rule="evenodd" clip-rule="evenodd" d="M38.2591 49.7761C37.974 51.1179 36.8826 52.2413 35.5109 52.2413H24.1582C24.6389 53.2315 25.5656 53.9706 26.6769 53.9706H36.6117C37.9834 53.9706 39.0739 52.8446 39.3915 51.5102C40.1443 48.3469 42.2191 45.5018 44.2904 42.8954C46.4802 40.1399 47.7884 36.6523 47.7884 32.8591C47.7884 32.135 47.7407 31.422 47.6483 30.7231C47.2268 34.115 45.8713 37.2171 43.8473 39.7641C41.4471 42.7844 39.0426 46.0893 38.2591 49.7761Z" fill="#D8E3F5"/>
<rect x="25.4355" y="55.085" width="12.4185" height="2.04759" rx="1.02379" fill="#4F5B5E"/>
<rect x="26.1367" y="58.1807" width="11.015" height="2.04759" rx="1.02379" fill="#4F5B5E"/>
<path d="M27.918 61.8542C27.918 61.5715 28.1472 61.3423 28.4299 61.3423H34.8572C35.1399 61.3423 35.3691 61.5715 35.3691 61.8542C35.3691 62.7023 34.6815 63.3899 33.8334 63.3899H29.4537C28.6055 63.3899 27.918 62.7023 27.918 61.8542Z" fill="#4F5B5E"/>
<path d="M19.5078 32.8596C19.5078 32.4436 19.5287 32.0325 19.5696 31.6272M31.6442 20.7231C26.5326 20.7231 22.1591 23.8833 20.3707 28.3564" stroke="#5AA3FF" stroke-width="2.4837" stroke-linecap="round"/>
<path d="M56.9977 24.5721L61.5893 24.557L61.84 24.0393L60.569 21.565L54.6481 21.6002L54.3936 22.1202L55.1224 24.2574L49.4565 24.2647L49.2028 24.785L57.8723 27.1367L58.12 26.6127L56.9977 24.5721Z" fill="#FF931E"/>
<path d="M61.8416 24.0363L60.8214 21.0444L54.646 21.5996L55.3748 23.7368L49.4552 24.2644L58.1246 26.6161L57.25 24.0515L61.8416 24.0363Z" fill="#FFC85A"/>
</g>
<path d="M41.0513 8.5959L41.8477 4.71556L41.3851 4.45083L38.7377 5.27155L37.726 10.2769L38.1903 10.5451L40.4119 10.1479L39.418 14.935L39.8827 15.2025L43.7171 8.11933L43.2478 7.85647L41.0513 8.5959Z" fill="#FF931E"/>
<path d="M41.3821 4.44955L38.2721 5.00553L37.7247 10.279L39.9463 9.88188L39.4171 14.9365L43.2515 7.85331L40.5857 8.32989L41.3821 4.44955Z" fill="#FFC85A"/>
<path d="M55.0759 9.64239L60.6084 2.86273L59.7035 1.91404L52.3842 1.0168L45.2865 9.77681L46.1925 10.7337L52.0671 12.0522L45.2137 20.4055L46.1212 21.3615L62.1254 11.2247L61.2021 10.2733L55.0759 9.64239Z" fill="#FF931E"/>
<path d="M59.6988 1.90903L51.4746 0.0630996L45.2829 9.77996L51.1576 11.0985L45.2116 20.4078L61.2159 10.271L54.1663 8.6887L59.6988 1.90903Z" fill="#FFC85A"/>
<defs>
<linearGradient id="paint0_linear_493_1184" x1="32.0449" y1="7.98437" x2="32.0449" y2="59.9247" gradientUnits="userSpaceOnUse">
<stop stop-color="#90C9F9"/>
<stop offset="1" stop-color="#B6D9FA"/>
</linearGradient>
</defs>
</svg>
