<svg width="56" height="56" viewBox="0 0 56 56" fill="none" xmlns="http://www.w3.org/2000/svg">
<rect width="56" height="56" rx="8" fill="#1F8A70" fill-opacity="0.09"/>
<path d="M39.2301 24.6057L39.2301 24.6056L39.2211 24.6122C38.7475 24.9647 38.1502 25.14 37.5063 25.14C37.1041 25.14 36.7059 25.0812 36.2951 24.9404L36.2951 24.9404L36.2908 24.9389L29.1175 22.5523L28.4596 22.3334V23.0267V36C28.4596 39.2172 25.8435 41.8333 22.6263 41.8333C19.4091 41.8333 16.793 39.2172 16.793 36C16.793 32.7828 19.4091 30.1667 22.6263 30.1667C24.1708 30.1667 25.5702 30.779 26.617 31.7641L27.4596 32.5572V31.4V17.3333C27.4596 16.1781 27.933 15.2196 28.7044 14.6596C29.4754 14.1131 30.5308 13.9704 31.6295 14.3281C31.6301 14.3283 31.6307 14.3285 31.6313 14.3287L37.5209 16.3008L37.5226 16.3014C38.3112 16.5623 39.0501 17.1477 39.594 17.9023C40.1379 18.657 40.4596 19.5436 40.4596 20.3733V21.9333C40.4596 23.1092 39.9946 24.0628 39.2301 24.6057Z" fill="#1F8A70" stroke="#1F8A70"/>
</svg>
