<svg width="32" height="32" viewBox="0 0 32 32" fill="none" xmlns="http://www.w3.org/2000/svg">
<path d="M8.61286 25.9059L8.61911 25.8996L8.62743 25.8913C9.93224 24.513 11.9606 24.6251 13.0932 26.1405L14.438 27.9381C14.4383 27.9384 14.4385 27.9387 14.4388 27.9391C14.8984 28.5457 15.4652 28.8098 15.9927 28.8098C16.5201 28.8098 17.0868 28.5458 17.5465 27.9392C17.5468 27.9388 17.5471 27.9384 17.5474 27.9381L18.8923 26.1403L18.8927 26.1398C19.4551 25.39 20.2444 24.9658 21.0755 24.9206C21.9065 24.8753 22.737 25.2111 23.3776 25.898L8.61286 25.9059ZM8.61286 25.9059L8.60683 25.9124M8.61286 25.9059L8.60683 25.9124M8.60683 25.9124C8.04543 26.515 7.53594 26.8864 7.10595 27.072C6.68086 27.2556 6.36376 27.247 6.13214 27.1473C5.89686 27.046 5.6565 26.8103 5.47004 26.3531C5.2829 25.8942 5.16602 25.2462 5.16602 24.3998V9.3865C5.16602 6.69221 5.49247 5.20323 6.28781 4.35309C7.07205 3.51481 8.44035 3.1665 10.9593 3.1665H21.0393C23.5586 3.1665 24.9264 3.5149 25.7089 4.35277C26.5024 5.20241 26.826 6.69091 26.8193 9.38526V9.3865M8.60683 25.9124L26.8193 9.3865M26.8193 9.3865V24.3865C26.8193 25.2332 26.7032 25.8815 26.5169 26.3405M26.8193 9.3865L26.5169 26.3405M26.5169 26.3405C26.3312 26.798 26.0919 27.0331 25.8579 27.1341M26.5169 26.3405L25.8579 27.1341M25.8579 27.1341C25.6275 27.2336 25.311 27.2424 24.8848 27.0586M25.8579 27.1341L24.8848 27.0586M24.8848 27.0586C24.4541 26.8729 23.9431 26.5014 23.3785 25.899L24.8848 27.0586ZM11.9993 16.1665H19.9993C20.8222 16.1665 21.4993 15.4893 21.4993 14.6665C21.4993 13.8437 20.8222 13.1665 19.9993 13.1665H11.9993C11.1765 13.1665 10.4993 13.8437 10.4993 14.6665C10.4993 15.4893 11.1765 16.1665 11.9993 16.1665ZM10.666 10.8332H21.3327C22.1555 10.8332 22.8327 10.156 22.8327 9.33317C22.8327 8.51036 22.1555 7.83317 21.3327 7.83317H10.666C9.84321 7.83317 9.16602 8.51036 9.16602 9.33317C9.16602 10.156 9.84321 10.8332 10.666 10.8332Z" fill="#09093C" stroke="#09093C"/>
</svg>
