<svg width="32" height="32" viewBox="0 0 32 32" fill="none" xmlns="http://www.w3.org/2000/svg">
<path d="M8.61384 25.9059L8.62009 25.8996L8.62841 25.8913C9.93322 24.513 11.9616 24.6251 13.0942 26.1405L14.439 27.9381C14.4392 27.9384 14.4395 27.9387 14.4398 27.9391C14.8994 28.5457 15.4662 28.8098 15.9937 28.8098C16.5211 28.8098 17.0878 28.5458 17.5474 27.9392C17.5477 27.9388 17.548 27.9384 17.5483 27.9381L18.8933 26.1403L18.8937 26.1398C19.4561 25.39 20.2453 24.9658 21.0765 24.9206C21.9074 24.8753 22.738 25.2111 23.3785 25.898L8.61384 25.9059ZM8.61384 25.9059L8.60781 25.9124M8.61384 25.9059L8.60781 25.9124M8.60781 25.9124C8.0464 26.515 7.53691 26.8864 7.10692 27.072C6.68184 27.2556 6.36473 27.247 6.13311 27.1473C5.89784 27.046 5.65748 26.8103 5.47101 26.3531C5.28388 25.8942 5.16699 25.2462 5.16699 24.3998V9.3865C5.16699 6.69221 5.49345 5.20323 6.28879 4.35309C7.07303 3.51481 8.44133 3.1665 10.9603 3.1665H21.0403C23.5595 3.1665 24.9274 3.5149 25.7099 4.35277C26.5034 5.20241 26.827 6.69091 26.8203 9.38526V9.3865M8.60781 25.9124L26.8203 9.3865M26.8203 9.3865V24.3865C26.8203 25.2332 26.7042 25.8815 26.5179 26.3405M26.8203 9.3865L26.5179 26.3405M26.5179 26.3405C26.3322 26.798 26.0929 27.0331 25.8589 27.1341M26.5179 26.3405L25.8589 27.1341M25.8589 27.1341C25.6284 27.2336 25.3119 27.2424 24.8858 27.0586M25.8589 27.1341L24.8858 27.0586M24.8858 27.0586C24.4551 26.8729 23.9441 26.5014 23.3795 25.899L24.8858 27.0586ZM12.0003 16.1665H20.0003C20.8231 16.1665 21.5003 15.4893 21.5003 14.6665C21.5003 13.8437 20.8231 13.1665 20.0003 13.1665H12.0003C11.1775 13.1665 10.5003 13.8437 10.5003 14.6665C10.5003 15.4893 11.1775 16.1665 12.0003 16.1665ZM10.667 10.8332H21.3337C22.1565 10.8332 22.8337 10.156 22.8337 9.33317C22.8337 8.51036 22.1565 7.83317 21.3337 7.83317H10.667C9.84418 7.83317 9.16699 8.51036 9.16699 9.33317C9.16699 10.156 9.84418 10.8332 10.667 10.8332Z" fill="#757C98" stroke="#757C98"/>
</svg>
