<svg width="72" height="72" viewBox="0 0 72 72" fill="none" xmlns="http://www.w3.org/2000/svg">
<path d="M58 11.01V11.0197C57.9992 11.0057 58 11.001 58 11.01ZM58.0468 11.2289L58.0556 11.24C59.0802 13.444 59.5 16.5851 59.5 21.12V50.88C59.5 55.4274 59.0779 58.5734 58.0471 60.7782L58.0214 60.833C57.4581 61.5331 56.7406 61.87 55.89 61.87C54.5097 61.87 52.7139 60.945 50.6757 58.759C48.0029 55.8908 43.8567 56.1216 41.5103 59.2496C41.5102 59.2497 41.5101 59.2499 41.51 59.25L38.4807 63.269L38.4782 63.2724C37.3585 64.784 35.9094 65.5 34.5 65.5C33.0906 65.5 31.6415 64.784 30.5218 63.2724L30.5189 63.2686L27.4605 59.2207C27.4602 59.2202 27.4598 59.2198 27.4595 59.2193C25.1433 56.1218 21.0323 55.8936 18.3613 58.7216L18.3364 58.7465L18.3304 58.7525L18.3246 58.7587C16.6612 60.5399 15.147 61.5019 13.8946 61.7889C12.6999 62.0626 11.7209 61.7318 10.9776 60.8309L10.9529 60.7782C9.92211 58.5734 9.5 55.4274 9.5 50.88V21.12C9.5 16.5853 9.91976 13.4441 10.9443 11.2402L10.9541 11.2277C11.6859 10.2905 12.672 9.94135 13.8849 10.2152C15.1404 10.4987 16.6617 11.4606 18.3246 13.2413L18.3304 13.2475L18.3364 13.2536L18.3613 13.2784C21.0324 16.1065 25.1436 15.8782 27.4597 12.7804C27.46 12.78 27.4602 12.7797 27.4605 12.7793L30.5189 8.73142L30.519 8.73143L30.5218 8.72761C31.6415 7.216 33.0906 6.5 34.5 6.5C35.9094 6.5 37.3585 7.216 38.4782 8.72761L38.4782 8.72762L38.4807 8.73095L41.51 12.75C41.51 12.7501 41.5101 12.7501 41.5101 12.7502C43.8564 15.8784 48.0029 16.1093 50.6757 13.241C52.7139 11.055 54.5097 10.13 55.89 10.13C56.7433 10.13 57.4731 10.4987 58.0468 11.2289ZM11 11.0197V11.01C11 11.001 11.0008 11.0057 11 11.0197ZM24 44H42C43.5061 44 44.75 42.7561 44.75 41.25C44.75 39.7439 43.5061 38.5 42 38.5H24C22.4939 38.5 21.25 39.7439 21.25 41.25C21.25 42.7561 22.4939 44 24 44ZM24 33.5H48C49.5061 33.5 50.75 32.2561 50.75 30.75C50.75 29.2439 49.5061 28 48 28H24C22.4939 28 21.25 29.2439 21.25 30.75C21.25 32.2561 22.4939 33.5 24 33.5Z" fill="#FC9B4C" stroke="#FC9B4C"/>
</svg>
