<svg width="24" height="24" viewBox="0 0 24 24" fill="none" xmlns="http://www.w3.org/2000/svg">
<path d="M17.3905 15.67L13.3505 12H10.6405L6.60047 15.67C5.47047 16.69 5.10047 18.26 5.65047 19.68C6.20047 21.09 7.54047 22 9.05047 22H14.9405C16.4605 22 17.7905 21.09 18.3405 19.68C18.8905 18.26 18.5205 16.69 17.3905 15.67ZM13.8205 18.14H10.1805C9.80047 18.14 9.50047 17.83 9.50047 17.46C9.50047 17.09 9.81047 16.78 10.1805 16.78H13.8205C14.2005 16.78 14.5005 17.09 14.5005 17.46C14.5005 17.83 14.1905 18.14 13.8205 18.14Z" fill="white"/>
<path d="M18.3497 4.32C17.7997 2.91 16.4597 2 14.9497 2H9.04967C7.53967 2 6.19967 2.91 5.64967 4.32C5.10967 5.74 5.47967 7.31 6.60967 8.33L10.6497 12H13.3597L17.3997 8.33C18.5197 7.31 18.8897 5.74 18.3497 4.32ZM13.8197 7.23H10.1797C9.79967 7.23 9.49967 6.92 9.49967 6.55C9.49967 6.18 9.80967 5.87 10.1797 5.87H13.8197C14.1997 5.87 14.4997 6.18 14.4997 6.55C14.4997 6.92 14.1897 7.23 13.8197 7.23Z" fill="white"/>
</svg>
