<svg width="62" height="62" viewBox="0 0 62 62" fill="none" xmlns="http://www.w3.org/2000/svg">
<rect width="62" height="62" rx="31" fill="#0268FB"/>
<path d="M18.5772 39.9622L18.5749 39.9605C18.0877 39.6007 17.6166 38.9938 17.2663 38.2912C16.9162 37.589 16.7129 36.8434 16.7129 36.2327V22.0577C16.7129 21.1904 17.0458 20.251 17.6082 19.4398C18.1704 18.6288 18.9344 17.9857 19.749 17.6782C19.7491 17.6781 19.7493 17.6781 19.7494 17.678L29.3707 14.0744C29.3711 14.0742 29.3716 14.0741 29.372 14.0739C29.7985 13.917 30.3915 13.8296 31.0091 13.8296C31.6268 13.8296 32.2198 13.917 32.6464 14.074C32.6468 14.0741 32.6472 14.0742 32.6475 14.0744L42.2674 17.6775C42.2678 17.6776 42.2683 17.6778 42.2687 17.678C43.0742 17.9852 43.8337 18.6278 44.3916 19.4384C44.9499 20.2494 45.2781 21.1876 45.2704 22.0533H45.2704V22.0577V36.2327C45.2704 36.843 45.0673 37.584 44.7172 38.2841C44.3675 38.9836 43.8959 39.5926 43.4054 39.9627C43.4051 39.9629 43.4047 39.9632 43.4044 39.9635L33.7811 47.1547L33.7797 47.1557C33.0327 47.7179 32.0236 48.0133 30.9916 48.0133C29.9597 48.0133 28.9506 47.7179 28.2035 47.1557L28.2022 47.1547L18.5772 39.9622ZM34.8993 24.7842L28.6554 31.0281L27.1189 29.4917C26.4162 28.7889 25.2596 28.7889 24.5568 29.4917C23.8545 30.194 23.8541 31.3498 24.5557 32.0526C24.5561 32.053 24.5565 32.0534 24.5568 32.0538L27.3546 34.8866L27.3568 34.8888C27.718 35.25 28.1799 35.4202 28.6379 35.4202C29.0958 35.4202 29.5577 35.25 29.9189 34.8888L37.4412 27.3665C38.1652 26.663 38.1641 25.4868 37.4614 24.7842C36.7587 24.0814 35.6021 24.0814 34.8993 24.7842Z" fill="white" stroke="white"/>
</svg>
