<svg width="24" height="25" viewBox="0 0 24 25" fill="none" xmlns="http://www.w3.org/2000/svg">
<path d="M17.782 10.4807L17.7821 10.4807L17.7853 10.4781C18.3171 10.046 18.4018 9.2559 17.9734 8.72133C17.5464 8.16552 16.7468 8.09123 16.2165 8.52047L13.088 11.0193L13.087 11.0201C12.8117 11.2411 12.4159 11.3675 11.995 11.3675C11.5741 11.3675 11.1783 11.2411 10.903 11.0201L10.902 11.0193L7.77342 8.52042C7.22844 8.07934 6.44673 8.19189 6.02194 8.7147L6.02187 8.71465L6.01599 8.72218C5.59983 9.25486 5.68133 10.0447 6.2147 10.4781L6.21469 10.4781L6.21796 10.4807L9.34605 12.9792C10.0977 13.5912 11.0633 13.88 12 13.88C12.9396 13.88 13.8935 13.5896 14.6526 12.9803C14.6527 12.9801 14.6529 12.98 14.6531 12.9799L17.782 10.4807ZM7 4.5H17C18.4234 4.5 19.5331 4.85591 20.2848 5.5539C21.0297 6.24565 21.5 7.3453 21.5 9V16C21.5 17.6547 21.0297 18.7543 20.2848 19.4461C19.5331 20.1441 18.4234 20.5 17 20.5H7C5.57665 20.5 4.4669 20.1441 3.71523 19.4461C2.97026 18.7543 2.5 17.6547 2.5 16V9C2.5 7.3453 2.97026 6.24565 3.71523 5.5539C4.4669 4.85591 5.57665 4.5 7 4.5Z" fill="#757C98" stroke="#757C98"/>
</svg>
