<svg width="24" height="23" viewBox="0 0 24 23" fill="none" xmlns="http://www.w3.org/2000/svg">
<path d="M10.0979 2.3541C10.6966 0.511477 13.3034 0.51148 13.9021 2.3541L15.1432 6.17376C15.4109 6.99781 16.1789 7.55573 17.0453 7.55573H21.0615C22.999 7.55573 23.8045 10.035 22.2371 11.1738L18.9879 13.5344C18.2869 14.0437 17.9936 14.9465 18.2614 15.7705L19.5024 19.5902C20.1012 21.4328 17.9922 22.965 16.4248 21.8262L13.1756 19.4656C12.4746 18.9563 11.5254 18.9563 10.8244 19.4656L7.57523 21.8262C6.0078 22.965 3.89885 21.4328 4.49755 19.5902L5.73863 15.7705C6.00638 14.9465 5.71306 14.0437 5.01209 13.5344L1.76289 11.1738C0.195462 10.035 1.00102 7.55573 2.93846 7.55573H6.95469C7.82115 7.55573 8.58906 6.99781 8.8568 6.17376L10.0979 2.3541Z" fill="#FC9B4C"/>
</svg>
