<svg width="56" height="56" viewBox="0 0 56 56" fill="none" xmlns="http://www.w3.org/2000/svg">
<rect width="56" height="56" rx="12" fill="#FC9B4C" fill-opacity="0.05"/>
<path d="M25 18C22.38 18 20.25 20.13 20.25 22.75C20.25 25.32 22.26 27.4 24.88 27.49C24.96 27.48 25.04 27.48 25.1 27.49C25.12 27.49 25.13 27.49 25.15 27.49C25.16 27.49 25.16 27.49 25.17 27.49C27.73 27.4 29.74 25.32 29.75 22.75C29.75 20.13 27.62 18 25 18Z" fill="#FC9B4C"/>
<path d="M30.08 30.1499C27.29 28.2899 22.74 28.2899 19.93 30.1499C18.66 30.9999 17.96 32.1499 17.96 33.3799C17.96 34.6099 18.66 35.7499 19.92 36.5899C21.32 37.5299 23.16 37.9999 25 37.9999C26.84 37.9999 28.68 37.5299 30.08 36.5899C31.34 35.7399 32.04 34.5999 32.04 33.3599C32.03 32.1299 31.34 30.9899 30.08 30.1499Z" fill="#FC9B4C"/>
<path d="M35.9904 23.3401C36.1504 25.2801 34.7704 26.9801 32.8604 27.2101C32.8504 27.2101 32.8504 27.2101 32.8404 27.2101H32.8104C32.7504 27.2101 32.6904 27.2101 32.6404 27.2301C31.6704 27.2801 30.7804 26.9701 30.1104 26.4001C31.1404 25.4801 31.7304 24.1001 31.6104 22.6001C31.5404 21.7901 31.2604 21.0501 30.8404 20.4201C31.2204 20.2301 31.6604 20.1101 32.1104 20.0701C34.0704 19.9001 35.8204 21.3601 35.9904 23.3401Z" fill="#FC9B4C"/>
<path d="M37.9902 32.5899C37.9102 33.5599 37.2902 34.3999 36.2502 34.9699C35.2502 35.5199 33.9902 35.7799 32.7402 35.7499C33.4602 35.0999 33.8802 34.2899 33.9602 33.4299C34.0602 32.1899 33.4702 30.9999 32.2902 30.0499C31.6202 29.5199 30.8402 29.0999 29.9902 28.7899C32.2002 28.1499 34.9802 28.5799 36.6902 29.9599C37.6102 30.6999 38.0802 31.6299 37.9902 32.5899Z" fill="#FC9B4C"/>
</svg>
