<svg width="62" height="62" viewBox="0 0 62 62" fill="none" xmlns="http://www.w3.org/2000/svg">
<rect width="62" height="62" rx="31" fill="#0268FB"/>
<path d="M26.3676 17.0516L26.3677 17.0517L26.3763 17.0442L29.1204 14.6497C30.1606 13.7758 31.8613 13.7795 32.8794 14.6494C32.8797 14.6496 32.8799 14.6498 32.8801 14.65L35.6426 17.0278C35.6428 17.0281 35.6431 17.0283 35.6434 17.0285C35.965 17.3071 36.4037 17.5387 36.8393 17.7005C37.2752 17.8625 37.7561 17.9725 38.175 17.9725H41.15C42.7289 17.9725 44.0275 19.2711 44.0275 20.85V23.825C44.0275 24.252 44.1372 24.7329 44.2998 25.1681C44.4623 25.6029 44.694 26.0362 44.9715 26.3566C44.9717 26.3569 44.972 26.3572 44.9722 26.3574L47.35 29.1199C47.3503 29.1202 47.3505 29.1205 47.3508 29.1208C48.2221 30.1408 48.223 31.8598 47.3666 32.8811C47.366 32.8818 47.3654 32.8825 47.3648 32.8833L44.9897 35.6425C44.9895 35.6428 44.9892 35.6431 44.989 35.6434C44.7104 35.965 44.4788 36.4037 44.317 36.8393C44.155 37.2752 44.045 37.756 44.045 38.175V41.15C44.045 42.7288 42.7464 44.0275 41.1675 44.0275H38.1925C37.7655 44.0275 37.2847 44.1371 36.8494 44.2997C36.4144 44.4623 35.981 44.6942 35.6606 44.9717C35.6604 44.9719 35.6602 44.972 35.6601 44.9721L32.9003 47.3477C32.8996 47.3483 32.8989 47.3488 32.8982 47.3494C31.8582 48.2241 30.157 48.2208 29.1385 47.3508C29.1381 47.3505 29.1378 47.3503 29.1375 47.35L26.375 44.9721C26.3747 44.9719 26.3744 44.9717 26.3742 44.9714C26.0525 44.6929 25.6138 44.4613 25.1783 44.2994C24.7424 44.1374 24.2615 44.0275 23.8425 44.0275H20.815C19.2362 44.0275 17.9375 42.7288 17.9375 41.15V38.1575C17.9375 37.7382 17.8274 37.2617 17.668 36.8311C17.5084 36.3998 17.2823 35.9687 17.0166 35.6499L17.0167 35.6499L17.0137 35.6464L14.6528 32.8658C14.6525 32.8654 14.6522 32.8651 14.652 32.8648C13.7944 31.8435 13.7944 30.1564 14.652 29.1351C14.6523 29.1348 14.6525 29.1345 14.6528 29.1342L17.0137 26.3536L17.0137 26.3536L17.0166 26.3501C17.2823 26.0313 17.5084 25.6002 17.668 25.1689C17.8274 24.7382 17.9375 24.2618 17.9375 23.8425V20.85C17.9375 19.2711 19.2362 17.9725 20.815 17.9725H23.8425C24.2613 17.9725 24.7416 17.8626 25.176 17.7036C25.6108 17.5444 26.0475 17.3184 26.3676 17.0516ZM30.1811 36.4985L38.6336 28.046C39.3364 27.3433 39.3364 26.1867 38.6336 25.4839C37.9308 24.7812 36.7742 24.7812 36.0715 25.4839L28.9 32.6554L25.9461 29.7014C25.2433 28.9987 24.0867 28.9987 23.384 29.7014C22.6812 30.4042 22.6812 31.5608 23.384 32.2635L27.619 36.4985C27.9567 36.8362 28.4159 37.03 28.9 37.03C29.3842 37.03 29.8434 36.8362 30.1811 36.4985Z" fill="white" stroke="white"/>
</svg>
