<svg width="74" height="74" viewBox="0 0 74 74" fill="none" xmlns="http://www.w3.org/2000/svg">
<rect width="74" height="74" rx="37" fill="#FED049"/>
<path d="M20.6858 44.1817L20.6867 44.181C21.8102 43.2854 23.224 42.75 24.75 42.75C28.3414 42.75 31.25 45.6586 31.25 49.25C31.25 51.1987 30.3902 52.9365 29.0405 54.124C27.8832 55.1342 26.3886 55.75 24.75 55.75C21.1586 55.75 18.25 52.8414 18.25 49.25C18.25 47.2014 19.1923 45.3667 20.6858 44.1817ZM21.4481 51.9344L21.448 51.9345L21.4529 51.9425C21.7921 52.4997 22.3947 52.8125 23 52.8125C23.2964 52.8125 23.6401 52.7454 23.949 52.5432L26.1244 51.238C26.1248 51.2377 26.1253 51.2374 26.1258 51.2371C26.6666 50.9168 27 50.3136 27 49.6875V47.0625C27 46.0689 26.1811 45.25 25.1875 45.25C24.1985 45.25 23.3717 46.0656 23.3925 47.0681V48.6683L22.081 49.4493C21.2029 49.9631 20.9485 51.078 21.4481 51.9344Z" fill="white" stroke="white"/>
<path d="M41.9875 22.9124V29.5624H39.3625V22.9124C39.3625 22.4399 38.9425 22.2124 38.6625 22.2124C38.575 22.2124 38.4875 22.2299 38.4 22.2649L24.5225 27.4974C23.595 27.8474 23 28.7224 23 29.7199V30.8924C21.4075 32.0824 20.375 33.9899 20.375 36.1424V29.7199C20.375 27.6374 21.6525 25.7824 23.595 25.0474L37.49 19.7974C37.875 19.6574 38.2775 19.5874 38.6625 19.5874C40.4125 19.5874 41.9875 21.0049 41.9875 22.9124Z" fill="white"/>
<path d="M53.6252 41.375V43.125C53.6252 43.5975 53.2577 43.9825 52.7677 44H50.2127C49.2852 44 48.4452 43.3175 48.3752 42.4075C48.3227 41.865 48.5327 41.3575 48.8827 41.0075C49.1977 40.675 49.6352 40.5 50.1077 40.5H52.7502C53.2577 40.5175 53.6252 40.9025 53.6252 41.375Z" fill="white"/>
<path d="M50.09 38.6625H51.875C52.8375 38.6625 53.625 37.875 53.625 36.9125V36.1425C53.625 32.52 50.6675 29.5625 47.045 29.5625H26.955C25.4675 29.5625 24.1025 30.0525 23 30.8925C21.4075 32.0825 20.375 33.99 20.375 36.1425V39.2575C20.375 39.9225 21.075 40.3425 21.705 40.1325C22.685 39.8 23.7175 39.625 24.75 39.625C30.0525 39.625 34.375 43.9475 34.375 49.25C34.375 50.51 34.0425 51.8925 33.5175 53.1175C33.2375 53.7475 33.675 54.5 34.3575 54.5H47.045C50.6675 54.5 53.625 51.5425 53.625 47.92V47.5875C53.625 46.625 52.8375 45.8375 51.875 45.8375H50.3525C48.6725 45.8375 47.0625 44.805 46.625 43.1775C46.275 41.8475 46.695 40.5525 47.57 39.7125C48.2175 39.0475 49.11 38.6625 50.09 38.6625ZM40.5 38.3125H31.75C31.0325 38.3125 30.4375 37.7175 30.4375 37C30.4375 36.2825 31.0325 35.6875 31.75 35.6875H40.5C41.2175 35.6875 41.8125 36.2825 41.8125 37C41.8125 37.7175 41.2175 38.3125 40.5 38.3125Z" fill="white"/>
</svg>
