<svg width="74" height="74" viewBox="0 0 74 74" fill="none" xmlns="http://www.w3.org/2000/svg">
<rect width="74" height="74" rx="37" fill="#1F8A70"/>
<path d="M20.6858 44.1817L20.6867 44.181C21.8102 43.2854 23.224 42.75 24.75 42.75C28.3414 42.75 31.25 45.6586 31.25 49.25C31.25 50.4688 30.9088 51.6205 30.3094 52.5926L30.3093 52.5925L30.3031 52.6031C29.9643 53.1839 29.529 53.6994 29.0312 54.1169L29.0245 54.1225L29.018 54.1284C27.8838 55.1491 26.3926 55.75 24.75 55.75C22.3777 55.75 20.3154 54.4835 19.1947 52.5994L19.1948 52.5994L19.1906 52.5926C18.5912 51.6205 18.25 50.4688 18.25 49.25C18.25 47.2014 19.1923 45.3667 20.6858 44.1817ZM28.712 48.8646L28.7137 48.863C29.4374 48.1875 29.4893 47.0313 28.808 46.3013C28.1328 45.5779 26.9774 45.5257 26.2473 46.206C26.247 46.2063 26.2467 46.2067 26.2463 46.207L23.801 48.4689L23.3011 47.9689C22.5983 47.2662 21.4417 47.2662 20.7389 47.9689C20.0362 48.6717 20.0362 49.8283 20.7389 50.5311L22.4714 52.2636C22.8327 52.6248 23.2945 52.795 23.7525 52.795C24.1892 52.795 24.6443 52.6278 24.9849 52.3117C24.985 52.3116 24.9851 52.3115 24.9852 52.3114L28.712 48.8646Z" fill="white" stroke="white"/>
<path d="M41.9875 22.9124V29.5624H39.3625V22.9124C39.3625 22.4399 38.9425 22.2124 38.6625 22.2124C38.575 22.2124 38.4875 22.2299 38.4 22.2649L24.5225 27.4974C23.595 27.8474 23 28.7224 23 29.7199V30.8924C21.4075 32.0824 20.375 33.9899 20.375 36.1424V29.7199C20.375 27.6374 21.6525 25.7824 23.595 25.0474L37.49 19.7974C37.875 19.6574 38.2775 19.5874 38.6625 19.5874C40.4125 19.5874 41.9875 21.0049 41.9875 22.9124Z" fill="white"/>
<path d="M53.6252 41.375V43.125C53.6252 43.5975 53.2577 43.9825 52.7677 44H50.2127C49.2852 44 48.4452 43.3175 48.3752 42.4075C48.3227 41.865 48.5327 41.3575 48.8827 41.0075C49.1977 40.675 49.6352 40.5 50.1077 40.5H52.7502C53.2577 40.5175 53.6252 40.9025 53.6252 41.375Z" fill="white"/>
<path d="M50.09 38.6625H51.875C52.8375 38.6625 53.625 37.875 53.625 36.9125V36.1425C53.625 32.52 50.6675 29.5625 47.045 29.5625H26.955C25.4675 29.5625 24.1025 30.0525 23 30.8925C21.4075 32.0825 20.375 33.99 20.375 36.1425V39.2575C20.375 39.9225 21.075 40.3425 21.705 40.1325C22.685 39.8 23.7175 39.625 24.75 39.625C30.0525 39.625 34.375 43.9475 34.375 49.25C34.375 50.51 34.0425 51.8925 33.5175 53.1175C33.2375 53.7475 33.675 54.5 34.3575 54.5H47.045C50.6675 54.5 53.625 51.5425 53.625 47.92V47.5875C53.625 46.625 52.8375 45.8375 51.875 45.8375H50.3525C48.6725 45.8375 47.0625 44.805 46.625 43.1775C46.275 41.8475 46.695 40.5525 47.57 39.7125C48.2175 39.0475 49.11 38.6625 50.09 38.6625ZM40.5 38.3125H31.75C31.0325 38.3125 30.4375 37.7175 30.4375 37C30.4375 36.2825 31.0325 35.6875 31.75 35.6875H40.5C41.2175 35.6875 41.8125 36.2825 41.8125 37C41.8125 37.7175 41.2175 38.3125 40.5 38.3125Z" fill="white"/>
</svg>
