<svg width="74" height="74" viewBox="0 0 74 74" fill="none" xmlns="http://www.w3.org/2000/svg">
<rect width="74" height="74" rx="37" fill="#EB5757"/>
<path d="M22.5 30.6476C21.8552 31.1669 21.3036 31.7989 20.875 32.5142V29.7199C20.875 27.8443 22.0248 26.1761 23.7719 25.515L37.6637 20.2663C37.9941 20.1465 38.3377 20.0874 38.6625 20.0874C40.1519 20.0874 41.4875 21.2963 41.4875 22.9124V29.0624H39.8625V22.9124C39.8625 22.5108 39.6778 22.2001 39.4364 22.0001C39.2088 21.8116 38.9216 21.7124 38.6625 21.7124C38.5085 21.7124 38.3599 21.7431 38.2194 21.7986L24.3461 27.0296L24.346 27.0296C23.2198 27.4546 22.5 28.5187 22.5 29.7199V30.6476Z" fill="white" stroke="white"/>
<path d="M48.8737 42.3692L48.8738 42.3691L48.8729 42.3593C48.8358 41.9766 48.9838 41.6135 49.2362 41.3611L49.2364 41.3612L49.2457 41.3514C49.4581 41.1271 49.7602 41 50.1077 41H52.7402C52.9835 41.0116 53.1252 41.1833 53.1252 41.375V43.125C53.1252 43.3226 52.9776 43.4886 52.7572 43.5H50.2127C49.5068 43.5 48.9208 42.9809 48.8737 42.3692Z" fill="white" stroke="white"/>
<path d="M24.75 42.25C23.105 42.25 21.5825 42.8275 20.375 43.79C18.765 45.0675 17.75 47.045 17.75 49.25C17.75 50.5625 18.1175 51.805 18.765 52.855C19.9725 54.885 22.195 56.25 24.75 56.25C26.5175 56.25 28.1275 55.6025 29.3525 54.5C29.895 54.045 30.3675 53.485 30.735 52.855C31.3825 51.805 31.75 50.5625 31.75 49.25C31.75 45.3825 28.6175 42.25 24.75 42.25ZM21.985 48.305C21.4775 47.7975 21.4775 46.9575 21.985 46.45C22.51 45.9425 23.3325 45.9425 23.8575 46.45L24.7675 47.3775L25.6425 46.485C26.1675 45.9775 26.99 45.9775 27.515 46.485C28.0225 47.01 28.0225 47.8325 27.515 48.3575L26.6225 49.2325L27.55 50.1425C28.0575 50.6675 28.0575 51.49 27.55 52.015C27.2875 52.26 26.955 52.3825 26.6225 52.3825C26.29 52.3825 25.9575 52.26 25.695 52.015L24.7675 51.0875L23.805 52.05C23.5425 52.3125 23.21 52.435 22.8775 52.435C22.545 52.435 22.2125 52.3125 21.95 52.05C21.4425 51.5425 21.4425 50.7025 21.95 50.195L22.9125 49.2325L21.985 48.305Z" fill="white"/>
<path d="M50.09 38.6625H51.875C52.8375 38.6625 53.625 37.875 53.625 36.9125V36.1425C53.625 32.52 50.6675 29.5625 47.045 29.5625H26.955C25.4675 29.5625 24.1025 30.0525 23 30.8925C21.4075 32.0825 20.375 33.99 20.375 36.1425V39.2575C20.375 39.9225 21.075 40.3425 21.705 40.1325C22.685 39.8 23.7175 39.625 24.75 39.625C30.0525 39.625 34.375 43.9475 34.375 49.25C34.375 50.51 34.0425 51.8925 33.5175 53.1175C33.2375 53.7475 33.675 54.5 34.3575 54.5H47.045C50.6675 54.5 53.625 51.5425 53.625 47.92V47.5875C53.625 46.625 52.8375 45.8375 51.875 45.8375H50.3525C48.6725 45.8375 47.0625 44.805 46.625 43.1775C46.275 41.8475 46.695 40.5525 47.57 39.7125C48.2175 39.0475 49.11 38.6625 50.09 38.6625ZM40.5 38.3125H31.75C31.0325 38.3125 30.4375 37.7175 30.4375 37C30.4375 36.2825 31.0325 35.6875 31.75 35.6875H40.5C41.2175 35.6875 41.8125 36.2825 41.8125 37C41.8125 37.7175 41.2175 38.3125 40.5 38.3125Z" fill="white"/>
</svg>
