<svg width="56" height="56" viewBox="0 0 56 56" fill="none" xmlns="http://www.w3.org/2000/svg">
<rect width="56" height="56" rx="8" fill="#0268FB" fill-opacity="0.09"/>
<path d="M35.0046 30.3986L35.0046 30.3986L35.0041 30.3927C34.9391 29.7109 35.1982 29.0711 35.6556 28.6246L35.6557 28.6247L35.6645 28.6156C36.0631 28.2063 36.6136 27.9668 37.2263 27.9668H39.9596C40.4467 27.9668 40.833 28.3594 40.833 28.8268V31.5735C40.833 32.0408 40.4467 32.4335 39.9596 32.4335H37.3863C36.1669 32.4335 35.0999 31.5419 35.0046 30.3986Z" fill="#0268FB" stroke="#0268FB"/>
<path d="M32.0088 30.6562L32.0089 30.6573C32.2462 33.3569 34.6096 35.4335 37.387 35.4335H37.987C38.0366 35.4335 38.0751 35.4539 38.0971 35.4771C38.1161 35.4973 38.1224 35.5171 38.1187 35.5428L38.1184 35.5446C37.7923 37.8876 35.774 39.7002 33.3337 39.7002H20.0003C17.3298 39.7002 15.167 37.5374 15.167 34.8669V25.5335C15.167 22.863 17.3298 20.7002 20.0003 20.7002H33.3337C35.7614 20.7002 37.7924 22.5135 38.1184 24.8558L38.1187 24.8576C38.1224 24.8832 38.1161 24.9031 38.0971 24.9233C38.0751 24.9465 38.0366 24.9669 37.987 24.9669H37.227C35.8153 24.9669 34.501 25.5256 33.5532 26.4868C32.4366 27.5902 31.8761 29.1082 32.0088 30.6562ZM21.3337 28.3669H29.3337C30.1565 28.3669 30.8337 27.6897 30.8337 26.8669C30.8337 26.0441 30.1565 25.3669 29.3337 25.3669H21.3337C20.5152 25.3669 19.8337 26.0264 19.8337 26.8669C19.8337 27.7073 20.5152 28.3669 21.3337 28.3669Z" fill="#0268FB" stroke="#0268FB"/>
<path d="M30.5827 17.6498L30.5827 17.6498L30.5861 17.6533C30.5871 17.6544 30.5881 17.6554 30.589 17.6564C30.5766 17.6724 30.5437 17.6998 30.4796 17.6998H20.0396C18.488 17.6998 17.0344 18.1553 15.8224 18.9393C15.7225 19.003 15.6223 18.9929 15.5733 18.9703C15.5744 18.9677 15.5755 18.9649 15.5769 18.9619L15.5769 18.9619L15.5793 18.9563C16.2489 17.39 17.8171 16.2998 19.6262 16.2998H27.1196C28.5519 16.2998 29.7853 16.8055 30.5827 17.6498ZM30.5967 17.6667C30.5967 17.6667 30.5966 17.6665 30.5964 17.666L30.5967 17.6667ZM15.5664 18.9945C15.5664 18.9945 15.5664 18.994 15.5665 18.9929L15.5664 18.9945Z" fill="#0268FB" stroke="#0268FB"/>
</svg>
