<svg width="122" height="40" viewBox="0 0 122 40" fill="none" xmlns="http://www.w3.org/2000/svg">
<g clip-path="url(#clip0_493_1662)">
<path fill-rule="evenodd" clip-rule="evenodd" d="M25.5557 11.6853C23.9112 10.5865 21.9778 10 20 10V0C23.9556 0 27.8224 1.17298 31.1114 3.37061C34.4004 5.56823 36.9638 8.69181 38.4776 12.3463C39.9913 16.0008 40.3874 20.0222 39.6157 23.9018C38.844 27.7814 36.9392 31.3451 34.1421 34.1421C31.3451 36.9392 27.7814 38.844 23.9018 39.6157C20.0222 40.3874 16.0008 39.9913 12.3463 38.4776C8.69181 36.9638 5.56823 34.4004 3.37061 31.1114C1.17298 27.8224 0 23.9556 0 20H10C10 21.9778 10.5865 23.9112 11.6853 25.5557C12.7841 27.2002 14.3459 28.4819 16.1732 29.2388C18.0004 29.9957 20.0111 30.1937 21.9509 29.8078C23.8907 29.422 25.6725 28.4696 27.0711 27.0711C28.4696 25.6725 29.422 23.8907 29.8078 21.9509C30.1937 20.0111 29.9957 18.0004 29.2388 16.1732C28.4819 14.3459 27.2002 12.7841 25.5557 11.6853Z" fill="#0268FB"/>
<path fill-rule="evenodd" clip-rule="evenodd" d="M10 4.33125e-06C10 1.31322 9.74135 2.61358 9.2388 3.82683C8.73625 5.04009 7.99965 6.14248 7.07106 7.07107C6.14249 7.99966 5.04009 8.73625 3.82683 9.2388C2.61357 9.74134 1.31322 10 4.3711e-07 10L0 20C2.62644 20 5.22715 19.4827 7.65368 18.4776C10.0802 17.4725 12.285 15.9993 14.1421 14.1421C15.9993 12.285 17.4725 10.0802 18.4776 7.65367C19.4827 5.22715 20 2.62643 20 0L10 4.33125e-06Z" fill="#0268FB"/>
</g>
<path d="M59.976 25.024H53.688L52.68 28H48.384L54.48 11.152H59.232L65.328 28H60.984L59.976 25.024ZM58.92 21.856L56.832 15.688L54.768 21.856H58.92ZM76.9513 28L71.2873 20.56V28H67.1833V11.152H71.2873V18.544L76.9033 11.152H81.7273L75.1993 19.408L81.9673 28H76.9513ZM96.0377 11.152V14.44H91.5737V28H87.4697V14.44H83.0057V11.152H96.0377ZM102.201 11.152V28H98.0974V11.152H102.201ZM120.992 11.152L115.016 28H109.88L103.904 11.152H108.272L112.448 23.872L116.648 11.152H120.992Z" fill="#09093C"/>
<defs>
<clipPath id="clip0_493_1662">
<rect width="40" height="40" fill="white"/>
</clipPath>
</defs>
</svg>
