<svg width="1280" height="568" viewBox="0 0 1280 568" fill="none" xmlns="http://www.w3.org/2000/svg">
<g clip-path="url(#clip0_493_1605)">
<path d="M0 -131.701C42.9281 -2.50274 202.422 168.23 496.975 -182.423C865.166 -620.74 1010.05 -941.343 1280 -488.671" stroke="#E2E4F1" stroke-opacity="0.3" stroke-width="2"/>
<path d="M0 -55.1389C42.9281 74.0593 202.422 244.792 496.975 -105.861C865.166 -544.178 1010.05 -864.781 1280 -412.109" stroke="#E2E4F1" stroke-opacity="0.3" stroke-width="2"/>
<path d="M0 21.4236C42.9281 150.622 202.422 321.355 496.975 -29.2986C865.166 -467.615 1010.05 -788.218 1280 -335.546" stroke="#E2E4F1" stroke-opacity="0.3" stroke-width="2"/>
<path d="M0 97.9849C42.9281 227.183 202.422 397.916 496.975 47.2627C865.166 -391.054 1010.05 -711.657 1280 -258.985" stroke="#E2E4F1" stroke-opacity="0.3" stroke-width="2"/>
<path d="M0 174.546C42.9281 303.745 202.422 474.478 496.975 123.824C865.166 -314.493 1010.05 -635.095 1280 -182.423" stroke="#E2E4F1" stroke-opacity="0.3" stroke-width="2"/>
<path d="M0 251.109C42.9281 380.307 202.422 551.04 496.975 200.386C865.166 -237.93 1010.05 -558.533 1280 -105.861" stroke="#E2E4F1" stroke-opacity="0.3" stroke-width="2"/>
<path d="M0 327.67C42.9281 456.868 202.422 627.601 496.975 276.948C865.166 -161.369 1010.05 -481.972 1280 -29.2996" stroke="#E2E4F1" stroke-opacity="0.3" stroke-width="2"/>
<path d="M0 404.232C42.9281 533.43 202.422 704.163 496.975 353.509C865.166 -84.8072 1010.05 -405.41 1280 47.262" stroke="#E2E4F1" stroke-opacity="0.3" stroke-width="2"/>
<path d="M0 480.795C42.9281 609.993 202.422 780.726 496.975 430.072C865.166 -8.24424 1010.05 -328.847 1280 123.825" stroke="#E2E4F1" stroke-opacity="0.3" stroke-width="2"/>
<path d="M0 557.356C42.9281 686.554 202.422 857.287 496.975 506.633C865.166 68.3166 1010.05 -252.286 1280 200.386" stroke="#E2E4F1" stroke-opacity="0.3" stroke-width="2"/>
<path d="M0 633.918C42.9281 763.116 202.422 933.849 496.975 583.196C865.166 144.879 1010.05 -175.724 1280 276.948" stroke="#E2E4F1" stroke-opacity="0.3" stroke-width="2"/>
<path d="M0 710.48C42.9281 839.678 202.422 1010.41 496.975 659.758C865.166 221.441 1010.05 -99.162 1280 353.51" stroke="#E2E4F1" stroke-opacity="0.3" stroke-width="2"/>
<path d="M0 787.041C42.9281 916.239 202.422 1086.97 496.975 736.319C865.166 298.002 1010.05 -22.6008 1280 430.071" stroke="#E2E4F1" stroke-opacity="0.3" stroke-width="2"/>
<path d="M0 863.603C42.9281 992.801 202.422 1163.53 496.975 812.881C865.166 374.564 1010.05 53.9615 1280 506.634" stroke="#E2E4F1" stroke-opacity="0.3" stroke-width="2"/>
<path d="M0 940.165C42.9281 1069.36 202.422 1240.1 496.975 889.442C865.166 451.126 1010.05 130.523 1280 583.195" stroke="#E2E4F1" stroke-opacity="0.3" stroke-width="2"/>
<path d="M0 1016.73C42.9281 1145.93 202.422 1316.66 496.975 966.006C865.166 527.689 1010.05 207.086 1280 659.758" stroke="#E2E4F1" stroke-opacity="0.3" stroke-width="2"/>
</g>
<defs>
<clipPath id="clip0_493_1605">
<rect width="1280" height="568" fill="white"/>
</clipPath>
</defs>
</svg>
